<?xml version="1.0" encoding="UTF-8" standalone="no"?>
<svg
   id="Layer_1"
   viewBox="0 0 160.89999 160.89999"
   version="1.1"
   sodipodi:docname="cat_ods_09.svg"
   width="160.89999"
   height="160.89999"
   inkscape:version="1.4 (86a8ad7, 2024-10-11)"
   inkscape:export-filename="cat_ods_09.png"
   inkscape:export-xdpi="1000"
   inkscape:export-ydpi="1000"
   xmlns:inkscape="http://www.inkscape.org/namespaces/inkscape"
   xmlns:sodipodi="http://sodipodi.sourceforge.net/DTD/sodipodi-0.dtd"
   xmlns="http://www.w3.org/2000/svg"
   xmlns:svg="http://www.w3.org/2000/svg">
  <defs
     id="defs125" />
  <sodipodi:namedview
     id="namedview125"
     pagecolor="#505050"
     bordercolor="#ffffff"
     borderopacity="1"
     inkscape:showpageshadow="0"
     inkscape:pageopacity="0"
     inkscape:pagecheckerboard="1"
     inkscape:deskcolor="#505050"
     inkscape:zoom="7.9090909"
     inkscape:cx="52.850575"
     inkscape:cy="33.568966"
     inkscape:window-width="1920"
     inkscape:window-height="1001"
     inkscape:window-x="2391"
     inkscape:window-y="-9"
     inkscape:window-maximized="1"
     inkscape:current-layer="Layer_1"
     showguides="false">
    <sodipodi:guide
       position="14.698276,149.04815"
       orientation="0,-1"
       id="guide4"
       inkscape:locked="false" />
    <sodipodi:guide
       position="38.002194,151.49019"
       orientation="1,0"
       id="guide5"
       inkscape:locked="false" />
  </sodipodi:namedview>
  <style
     id="style1">.st0{display:none}.st1{display:inline}.st2,.st3{fill:#fff}.st3{display:inline}.st4{fill:#010101}.st5{fill:#f1f1f1}.st6{fill:#56c22b}.st7{fill:#dda63a}.st8{fill:#c5192d}.st9{fill:#4c9f38}.st10{fill:#3f7e44}.st11{fill:#fcc30b}.st12{fill:#ff3a21}.st13{fill:#fd9d24}.st14{fill:#0a97d9}.st15{fill:#a21942}.st16{fill:#26bde2}.st17{fill:#fd6925}.st18{fill:#e5243b}.st19{fill:#dd1367}.st20{fill:#19486a}.st21{fill:#bf8b2e}.st22{fill:#00689d}.st23{fill:#56c02b}.st24{fill:none}.st25{enable-background:new}</style>
  <g
     id="OUTLINE_x5F_TEXT"
     class="st0"
     transform="translate(-440.1,-362.2)">
    <g
       class="st1"
       id="g1">
      <path
         class="st2"
         d="m 131.9,170.2 v 8.3 H 130 v -13.2 h 2.2 l 2.4,7.6 v -7.6 h 1.9 v 13.2 h -2 z m 9.3,8.5 c 2.4,0 3.4,-1.5 3.4,-3.6 v -6.4 c 0,-2.1 -1,-3.6 -3.4,-3.6 -2.3,0 -3.3,1.5 -3.3,3.6 v 6.4 c 0,2 1,3.6 3.3,3.6 m -1.1,-10.3 c 0,-0.8 0.3,-1.4 1.1,-1.4 0.8,0 1.1,0.6 1.1,1.4 v 7.1 c 0,0.8 -0.4,1.4 -1.1,1.4 -0.8,0 -1.1,-0.6 -1.1,-1.4 z m -7.8,25.1 h 1.1 c 2.2,0 3,-1.1 3,-3 v -2.8 c 0,-1.8 -0.8,-3 -3,-3 H 130 v 13.2 h 2.2 v -4.4 z m 0,-6.9 h 0.8 c 0.8,0 1.1,0.3 1.1,1.1 v 3 c 0,0.7 -0.3,1.1 -1.1,1.1 h -0.8 z m 8.7,11.5 c 2.4,0 3.4,-1.5 3.4,-3.6 v -6.4 c 0,-2.1 -1,-3.6 -3.4,-3.6 -2.3,0 -3.3,1.5 -3.3,3.6 v 6.4 c 0,2.1 1,3.6 3.3,3.6 m -1.1,-10.3 c 0,-0.8 0.3,-1.4 1.1,-1.4 0.8,0 1.1,0.6 1.1,1.4 v 7.1 c 0,0.8 -0.4,1.4 -1.1,1.4 -0.8,0 -1.1,-0.6 -1.1,-1.4 z m 10.1,10.1 2.5,-13.1 h -2 l -1.6,9.2 -1.5,-9.2 h -2.3 l 2.5,13.1 z m 8.9,-1.8 h -3 v -4 h 2.1 v -1.7 h -2.1 v -3.8 h 3 v -1.8 h -5.3 v 13.1 h 5.3 z m 3.6,-4.2 2.1,6 h 2.3 l -2.1,-6 c 1.3,-0.3 1.8,-1.1 1.8,-2.5 v -1.7 c 0,-1.8 -0.8,-3 -3,-3 h -3.2 v 13.2 h 2.2 v -6 z m 0,-5.3 h 0.7 c 0.8,0 1.1,0.3 1.1,1.1 v 1.9 c 0,0.7 -0.3,1.1 -1.1,1.1 h -0.7 z m 6.8,11.3 h 2.2 v -11.3 h 1.9 v -1.8 h -5.9 v 1.8 h 1.8 z m 7.4,0 h 2.2 v -5 l 2.4,-8.1 h -2.1 l -1.3,5 -1.4,-5 h -2.3 l 2.5,8.1 z"
         id="path1" />
    </g>
    <path
       class="st3"
       d="m 845.9,178.8 c 1.2,0 1.8,-0.6 2.1,-1.6 v 1.4 h 1.6 v -7 h -3.1 v 1.7 h 1 v 2.3 c 0,0.9 -0.4,1.3 -1.1,1.3 -0.8,0 -1.1,-0.6 -1.1,-1.4 v -7.1 c 0,-0.8 0.3,-1.4 1.1,-1.4 0.8,0 1.1,0.5 1.1,1.3 v 1.3 h 2 v -1.2 c 0,-1.9 -0.7,-3.3 -3.2,-3.3 -2.3,0 -3.3,1.5 -3.3,3.6 v 6.4 c 0.1,2.2 1,3.7 2.9,3.7 m 10.4,-2 h -3 v -4 h 2.2 v -1.7 h -2.2 v -3.8 h 3 v -1.8 H 851 v 13.1 h 5.3 z m 3.3,-6.4 2.6,8.2 h 1.9 v -13.1 h -1.8 v 7.5 l -2.4,-7.5 h -2.2 v 13.1 h 1.9 z m 12.6,4.7 V 169 c 0,-2 -0.8,-3.5 -3.2,-3.5 h -3.4 v 13.2 h 3.4 c 2.3,-0.1 3.2,-1.6 3.2,-3.6 m -4.4,1.7 v -9.5 h 0.9 c 0.9,0 1.3,0.5 1.3,1.3 v 6.9 c 0,0.8 -0.3,1.3 -1.3,1.3 z m 11.1,0 h -3.1 v -4 h 2.2 v -1.7 h -2.2 v -3.8 h 3.1 v -1.8 h -5.3 v 13.1 h 5.3 z m 3.6,-4.2 2.1,6 h 2.3 l -2.1,-6 c 1.3,-0.3 1.8,-1.1 1.8,-2.5 v -1.7 c 0,-1.8 -0.8,-3 -3,-3 h -3.2 v 13.2 h 2.2 z m 0,-5.3 h 0.7 c 0.8,0 1.1,0.3 1.1,1.1 v 1.9 c 0,0.7 -0.3,1.1 -1.1,1.1 h -0.7 z m -34.1,28.8 h -3.1 v -4 h 2.2 v -1.8 h -2.2 v -3.7 h 3.1 v -1.8 h -5.3 v 13.1 h 5.3 z m 3.9,1.8 v 0.9 l 4.2,0.8 V 198 l -1.6,-0.3 c 1.1,-0.5 1.6,-1.7 1.6,-3.1 v -6.4 c 0,-2.1 -1,-3.6 -3.4,-3.6 -2.3,0 -3.3,1.5 -3.3,3.6 v 6.4 c 0,1.7 0.7,3 2.5,3.3 M 852,187.8 c 0,-0.8 0.3,-1.4 1.1,-1.4 0.8,0 1.1,0.6 1.1,1.4 v 7.2 c 0,0.8 -0.3,1.4 -1.1,1.4 -0.8,0 -1.1,-0.6 -1.1,-1.4 z m 5.9,-3 v 10 c 0,2 1,3.4 3.3,3.4 2.3,0 3.1,-1.3 3.1,-3.4 v -10 h -2 V 195 c 0,0.8 -0.3,1.3 -1.1,1.3 -0.8,0 -1.1,-0.5 -1.1,-1.3 v -10.2 z m 10,10.7 h 2.3 l 0.4,2.4 h 2.3 l -2.5,-13.2 h -2.5 l -2.5,13.2 h 2.1 z m 1.1,-7 0.9,5.3 h -1.8 z m 5,-3.7 v 13.1 h 4.8 v -1.8 h -2.6 v -11.3 z m 6,0 h 2.2 V 198 H 880 Z m 7.5,13.1 v -11.3 h 1.8 v -1.8 h -5.9 v 1.8 h 1.9 v 11.3 z m 5.1,0 h 2.2 v -5 l 2.5,-8.1 h -2.2 l -1.3,5 -1.3,-5 h -2.4 l 2.5,8.1 z M 667.3,178.6 v 0.9 l 4.2,0.8 v -1.6 l -1.6,-0.3 c 1.1,-0.5 1.6,-1.7 1.6,-3.1 v -6.4 c 0,-2.1 -1,-3.5 -3.4,-3.5 -2.3,0 -3.3,1.5 -3.3,3.5 v 6.4 c 0,1.7 0.7,3 2.5,3.3 M 667,168.5 c 0,-0.8 0.3,-1.4 1.1,-1.4 0.8,0 1.1,0.6 1.1,1.4 v 7.2 c 0,0.8 -0.3,1.4 -1.1,1.4 -0.8,0 -1.1,-0.6 -1.1,-1.4 z m 9.2,10.3 c 2.2,0 3.1,-1.3 3.1,-3.4 v -10 h -2 v 10.2 c 0,0.8 -0.3,1.3 -1.1,1.3 -0.8,0 -1.1,-0.5 -1.1,-1.3 v -10.2 h -2.2 v 10 c 0,2.1 1,3.4 3.3,3.4 m 6.4,-2.6 h 2.3 l 0.4,2.4 h 2.3 l -2.5,-13.2 h -2.5 l -2.5,13.2 h 2.1 z m 1.2,-7 0.9,5.3 h -1.8 z m 9.8,7.6 H 691 v -11.3 h -2.2 v 13.1 h 4.8 z m 1,-11.3 h 2.2 v 13.2 h -2.2 z m 5.1,13.1 h 2.2 v -11.3 h 1.9 v -1.8 h -5.9 v 1.8 h 1.8 z m 7.2,0 h 2.2 v -5 l 2.5,-8.1 h -2.2 l -1.3,5 -1.3,-5 h -2.4 l 2.5,8.1 z m -36.8,17.5 H 667 v -4 h 2.2 v -1.7 H 667 v -3.8 h 3.1 v -1.8 h -5.3 v 13.1 h 5.3 z m 7.9,-1.7 v -6.1 c 0,-2 -0.8,-3.5 -3.2,-3.5 h -3.4 V 198 h 3.4 c 2.4,-0.1 3.2,-1.6 3.2,-3.6 m -4.4,1.7 v -9.6 h 0.9 c 0.9,0 1.3,0.5 1.3,1.3 v 6.9 c 0,0.8 -0.3,1.3 -1.3,1.3 h -0.9 z m 5.9,-11.3 v 10 c 0,2 1,3.4 3.3,3.4 2.3,0 3.1,-1.3 3.1,-3.4 v -10 h -2 V 195 c 0,0.8 -0.3,1.3 -1.1,1.3 -0.8,0 -1.1,-0.5 -1.1,-1.3 v -10.2 z m 7.9,9.7 c 0,2 1,3.6 3.3,3.6 2.3,0 3.1,-1.4 3.1,-3.3 v -2.3 h -2 v 2.4 c 0,0.8 -0.3,1.3 -1.1,1.3 -0.8,0 -1.1,-0.6 -1.1,-1.4 v -7.1 c 0,-0.8 0.3,-1.4 1.1,-1.4 0.8,0 1.1,0.5 1.1,1.3 v 1.7 h 2 v -1.6 c 0,-1.9 -0.7,-3.3 -3.1,-3.3 -2.3,0 -3.3,1.5 -3.3,3.6 z m 9.5,1 h 2.3 l 0.4,2.4 h 2.3 l -2.5,-13.2 h -2.5 l -2.5,13.2 h 2.1 z m 1.2,-7 0.9,5.3 h -1.8 z m 3.6,-1.9 h 1.8 v 11.3 h 2.2 v -11.3 h 1.9 v -1.8 h -5.9 z m 7.1,-1.8 H 711 V 198 h -2.2 z m 7,13.3 c 2.3,0 3.4,-1.5 3.4,-3.6 v -6.4 c 0,-2.1 -1,-3.5 -3.4,-3.5 -2.3,0 -3.3,1.5 -3.3,3.5 v 6.4 c 0,2.1 1,3.6 3.3,3.6 m -1.1,-10.3 c 0,-0.8 0.3,-1.4 1.1,-1.4 0.8,0 1.1,0.6 1.1,1.4 v 7.1 c 0,0.8 -0.3,1.4 -1.1,1.4 -0.8,0 -1.1,-0.6 -1.1,-1.4 z m 7.8,1.9 2.6,8.2 h 1.9 v -13.1 h -1.8 v 7.5 l -2.4,-7.5 h -2.2 v 13.1 h 1.9 z"
       id="path2" />
    <g
       class="st1"
       id="g3">
      <path
         class="st2"
         d="m 1024.8,178.7 c 2.3,0 3.1,-1.4 3.1,-3.3 v -2.3 h -2 v 2.4 c 0,0.8 -0.3,1.3 -1.1,1.3 -0.8,0 -1.1,-0.6 -1.1,-1.4 v -7.1 c 0,-0.8 0.3,-1.4 1.1,-1.4 0.8,0 1.1,0.5 1.1,1.3 v 1.7 h 2 v -1.6 c 0,-1.9 -0.7,-3.3 -3.1,-3.3 -2.3,0 -3.3,1.5 -3.3,3.6 v 6.4 c 0,2.2 1,3.7 3.3,3.7 m 9.4,-2 h -2.7 v -11.3 h -2.2 v 13.1 h 4.9 z m 6.5,0 h -3.1 v -4 h 2.2 v -1.8 h -2.2 v -3.7 h 3.1 v -1.8 h -5.3 v 13.1 h 5.3 z m 3.5,-0.6 h 2.3 l 0.4,2.4 h 2.3 l -2.5,-13.2 h -2.5 l -2.5,13.2 h 2.1 z m 1.1,-7 0.9,5.3 h -1.8 z m 6.9,1.2 2.6,8.2 h 1.9 v -13.1 h -1.8 v 7.5 l -2.4,-7.5 h -2.2 v 13.1 h 1.9 z m 12.7,8.2 1.3,-8.1 1.3,8.1 h 2.1 l 1.7,-13.1 h -1.9 l -1,8.3 -1.2,-8.3 h -1.8 l -1.1,8.3 h -0.1 l -1,-8.3 h -2.1 l 1.8,13.1 z m 8.9,-2.4 h 2.3 l 0.4,2.4 h 2.3 l -2.5,-13.2 h -2.5 l -2.5,13.2 h 2.1 z m 1.2,-7 0.9,5.3 h -1.8 z m 5.4,9.4 h 2.2 v -11.3 h 1.8 v -1.8 h -5.9 v 1.8 h 1.9 z m 10.3,-1.8 h -3 v -4 h 2.2 v -1.8 h -2.2 v -3.7 h 3 v -1.8 h -5.2 v 13.1 h 5.2 z m 3.5,-4.2 2.1,6 h 2.3 l -2.1,-6 c 1.3,-0.3 1.8,-1.1 1.8,-2.5 v -1.7 c 0,-1.8 -0.8,-3 -3,-3 h -3.2 v 13.2 h 2.2 v -6 z m 0,-5.3 h 0.7 c 0.8,0 1.1,0.3 1.1,1.1 v 1.9 c 0,0.7 -0.3,1.1 -1.1,1.1 h -0.7 z m -70.5,28.3 h 2.3 l 0.4,2.4 h 2.3 l -2.5,-13.2 h -2.5 l -2.5,13.2 h 2.1 z m 1.2,-7 0.9,5.3 h -1.8 z m 4.8,-3.7 v 13.1 h 1.8 v -8.2 l 2.6,8.2 h 2 v -13.1 h -1.9 v 7.5 l -2.4,-7.5 z m 8,13.1 h 3.4 c 2.4,0 3.2,-1.5 3.2,-3.5 v -6.1 c 0,-2 -0.8,-3.5 -3.2,-3.5 h -3.4 z m 2.2,-11.3 h 0.9 c 0.9,0 1.3,0.5 1.3,1.3 v 6.9 c 0,0.8 -0.3,1.3 -1.3,1.3 h -0.9 z m 9.3,6.7 v 1.8 c 0,1.7 0.9,3 3.1,3 2.3,0 3.2,-1.3 3.2,-3.1 v -0.6 c 0,-1.5 -0.6,-2.2 -1.8,-3.4 l -1.4,-1.4 c -0.6,-0.6 -1,-1 -1,-1.8 v -0.3 c 0,-0.7 0.4,-1.1 1,-1.1 0.7,0 1,0.4 1,1.1 v 1.1 h 2 v -1.1 c 0,-1.9 -0.9,-3 -3.1,-3 -2.2,0 -3.1,1.3 -3.1,2.9 v 0.4 c 0,1.5 0.6,2.3 1.8,3.5 l 1.3,1.3 c 0.7,0.6 1,1.1 1,1.9 v 0.5 c 0,0.7 -0.3,1.2 -1,1.2 -0.8,0 -1.1,-0.4 -1.1,-1.2 v -1.8 h -1.9 z m 9.1,4.6 0.4,-2.4 h 2.3 l 0.4,2.4 h 2.3 l -2.5,-13.2 h -2.5 l -2.5,13.2 z m 1.5,-9.4 0.9,5.3 h -1.8 z m 9.5,3.8 -2.3,-7.5 h -2.2 v 13.1 h 1.9 v -8.2 l 2.5,8.2 h 2 v -13.1 h -1.9 z m 3.7,-7.5 h 2.2 V 198 h -2.2 z m 7.3,13.1 v -11.3 h 1.8 v -1.8 h -5.9 v 1.8 h 1.8 v 11.3 z m 6.3,-13.1 h -2.5 l -2.5,13.2 h 2.1 l 0.4,-2.4 h 2.3 l 0.4,2.4 h 2.3 z m -2.3,9 0.9,-5.3 0.9,5.3 z m 10,-9 h -5.9 v 1.8 h 1.8 v 11.3 h 2.2 v -11.3 h 1.9 z m 1.2,0 h 2.2 V 198 h -2.2 z m 6.9,13.3 c 2.3,0 3.4,-1.5 3.4,-3.6 v -6.4 c 0,-2.1 -1,-3.6 -3.4,-3.6 -2.3,0 -3.3,1.5 -3.3,3.6 v 6.4 c 0,2.1 1,3.6 3.3,3.6 m -1.1,-10.3 c 0,-0.8 0.3,-1.4 1.1,-1.4 0.8,0 1.1,0.6 1.1,1.4 v 7.1 c 0,0.8 -0.3,1.4 -1.1,1.4 -0.8,0 -1.1,-0.6 -1.1,-1.4 z m 12.3,10.1 v -13.1 h -1.8 v 7.5 l -2.4,-7.5 h -2.2 v 13.1 h 1.9 v -8.2 l 2.6,8.2 z"
         id="path3" />
    </g>
    <path
       class="st3"
       d="m 672.4,350.3 2.1,6.1 h 2.4 l -2.1,-6.1 c 1.3,-0.3 1.8,-1.1 1.8,-2.6 V 346 c 0,-1.9 -0.8,-3 -3.1,-3 h -3.3 v 13.4 h 2.2 z m 0,-5.4 h 0.7 c 0.8,0 1.1,0.4 1.1,1.1 v 2 c 0,0.7 -0.3,1.1 -1.1,1.1 h -0.7 z m 10.9,9.7 h -3.1 v -4.1 h 2.3 v -1.8 h -2.3 v -3.8 h 3.1 V 343 H 678 v 13.4 h 5.3 z m 4.9,-11.6 h -3.5 v 13.4 h 3.5 c 2.4,0 3.3,-1.5 3.3,-3.6 v -6.2 c 0,-2 -0.9,-3.6 -3.3,-3.6 m 1,10.2 c 0,0.8 -0.4,1.4 -1.3,1.4 H 687 v -9.7 h 0.9 c 0.9,0 1.3,0.6 1.3,1.3 z m 6,-10.2 H 693 v 10.1 c 0,2.1 1,3.4 3.3,3.4 2.3,0 3.2,-1.3 3.2,-3.4 V 343 h -2.1 v 10.3 c 0,0.8 -0.3,1.3 -1.1,1.3 -0.8,0 -1.1,-0.5 -1.1,-1.3 z m 5.7,3.5 v 6.5 c 0,2.1 1,3.6 3.3,3.6 2.4,0 3.2,-1.4 3.2,-3.3 V 351 h -2 v 2.5 c 0,0.8 -0.3,1.3 -1.1,1.3 -0.8,0 -1.1,-0.6 -1.1,-1.4 v -7.2 c 0,-0.8 0.3,-1.4 1.1,-1.4 0.8,0 1.1,0.5 1.1,1.3 v 1.8 h 2 v -1.6 c 0,-2 -0.7,-3.4 -3.2,-3.4 -2.3,0 -3.3,1.5 -3.3,3.6 m 8,9.9 h 5.3 v -1.8 h -3.1 v -4.1 h 2.3 v -1.8 h -2.3 v -3.8 h 3.1 V 343 h -5.3 z m 6.7,-13.4 v 13.4 h 3.5 c 2.4,0 3.3,-1.5 3.3,-3.6 v -6.2 c 0,-2.1 -0.8,-3.6 -3.3,-3.6 z m 4.5,3.2 v 7 c 0,0.8 -0.4,1.4 -1.3,1.4 h -0.9 v -9.7 h 0.9 c 1,0 1.3,0.5 1.3,1.3 m -49.9,16 h 2.2 v 13.4 h -2.2 z m 10.2,0 h -1.9 v 7.6 l -2.4,-7.6 h -2.2 v 13.3 h 1.9 v -8.4 l 2.6,8.4 h 2 z m 6.6,1.8 v -1.8 h -5.3 v 13.3 h 5.3 v -1.8 h -3.1 v -4.1 h 2.2 v -1.8 h -2.2 V 364 Z m 4.2,-2 c -2.4,0 -3.4,1.5 -3.4,3.6 v 6.5 c 0,1.8 0.8,3.1 2.6,3.4 v 0.9 l 4.2,0.8 v -1.7 l -1.7,-0.3 c 1.1,-0.6 1.7,-1.7 1.7,-3.2 v -6.5 c 0,-2 -1,-3.5 -3.4,-3.5 m 1.2,10.5 c 0,0.8 -0.4,1.4 -1.2,1.4 -0.8,0 -1.1,-0.6 -1.1,-1.4 v -7.3 c 0,-0.8 0.4,-1.4 1.1,-1.4 0.8,0 1.2,0.6 1.2,1.4 z m 3.5,-10.3 v 10.1 c 0,2.1 1,3.4 3.4,3.4 2.3,0 3.2,-1.3 3.2,-3.4 v -10.1 h -2.1 v 10.3 c 0,0.8 -0.3,1.3 -1.1,1.3 -0.8,0 -1.1,-0.5 -1.1,-1.3 v -10.3 z m 9.8,0 -2.5,13.4 h 2.1 l 0.4,-2.4 h 2.4 l 0.4,2.4 h 2.3 l -2.5,-13.4 z m 0.3,9.1 0.9,-5.4 0.9,5.4 z m 5.7,-9.1 v 13.3 h 4.9 v -1.8 h -2.7 v -11.5 z m 5.9,0 h 2.2 v 13.4 h -2.2 z m 7.4,13.3 V 364 h 1.9 v -1.8 h -6 v 1.8 h 1.9 v 11.5 z m 2.9,-13.3 h 2.2 v 13.4 h -2.2 z m 8.9,11.5 h -3.1 v -4.1 h 2.2 v -1.8 h -2.2 V 364 h 3.1 v -1.8 h -5.4 v 13.3 h 5.4 z m 0.9,-2.9 v 1.8 c 0,1.8 0.9,3 3.2,3 2.3,0 3.3,-1.3 3.3,-3.1 v -0.7 c 0,-1.5 -0.6,-2.2 -1.8,-3.5 l -1.4,-1.4 c -0.6,-0.6 -1.1,-1.1 -1.1,-1.8 v -0.3 c 0,-0.8 0.4,-1.1 1.1,-1.1 0.7,0 1.1,0.4 1.1,1.1 v 1.2 h 2.1 v -1 c 0,-1.9 -0.9,-3 -3.1,-3 -2.2,0 -3.2,1.3 -3.2,2.9 v 0.5 c 0,1.5 0.6,2.3 1.9,3.6 l 1.3,1.3 c 0.7,0.6 1,1.1 1,1.9 v 0.5 c 0,0.7 -0.3,1.2 -1,1.2 -0.8,0 -1.1,-0.4 -1.1,-1.2 v -1.8 h -2.3 z m 107.1,-14.4 c 2.2,0 3.2,-1.3 3.2,-3.1 v -0.6 c 0,-1.5 -0.6,-2.2 -1.8,-3.4 l -1.4,-1.4 c -0.6,-0.6 -1,-1 -1,-1.8 v -0.3 c 0,-0.7 0.4,-1.1 1,-1.1 0.7,0 1,0.4 1,1.1 v 1.1 h 2 v -1.1 c 0,-1.9 -0.9,-3 -3.1,-3 -2.2,0 -3.1,1.3 -3.1,2.9 v 0.4 c 0,1.5 0.6,2.3 1.8,3.5 l 1.3,1.3 c 0.7,0.6 1,1.1 1,1.9 v 0.5 c 0,0.7 -0.3,1.2 -1,1.2 -0.8,0 -1.1,-0.4 -1.1,-1.2 v -1.8 h -2.1 v 1.8 c 0.2,1.8 1,3.1 3.3,3.1 m 10.6,-3.4 v -10 h -2 v 10.2 c 0,0.8 -0.3,1.3 -1.1,1.3 -0.8,0 -1.1,-0.5 -1.1,-1.3 V 343 H 849 v 10 c 0,2 1,3.4 3.3,3.4 2.2,0 3.1,-1.4 3.1,-3.4 m 7.5,0.3 v -0.6 c 0,-1.5 -0.6,-2.2 -1.8,-3.4 l -1.4,-1.4 c -0.6,-0.6 -1,-1 -1,-1.8 v -0.3 c 0,-0.7 0.4,-1.1 1,-1.1 0.7,0 1,0.4 1,1.1 v 1.1 h 2 v -1.1 c 0,-1.9 -0.9,-3 -3.1,-3 -2.2,0 -3.1,1.3 -3.1,2.9 v 0.4 c 0,1.5 0.6,2.3 1.8,3.5 l 1.3,1.3 c 0.7,0.6 1,1.1 1,1.9 v 0.5 c 0,0.7 -0.3,1.2 -1,1.2 -0.8,0 -1.1,-0.4 -1.1,-1.2 v -1.8 h -2.1 v 1.8 c 0,1.7 0.9,3 3.1,3 2.2,0 3.4,-1.2 3.4,-3 m 6.4,-10.2 h -5.9 v 1.8 h 1.8 v 11.3 h 2.3 v -11.3 h 1.8 z m 4.6,0 h -2.5 l -2.5,13.2 h 2.1 l 0.4,-2.4 h 2.3 l 0.4,2.4 h 2.3 z m -2.3,8.9 0.9,-5.3 0.9,5.3 z m 5.7,-8.9 h 2.2 v 13.2 h -2.2 z m 9.8,13.1 v -13.1 h -1.8 v 7.5 l -2.4,-7.5 h -2.2 v 13.1 h 1.9 v -8.3 l 2.6,8.3 z m 3.2,-2.4 h 2.3 l 0.4,2.4 h 2.3 L 892.8,343 h -2.5 l -2.5,13.2 h 2.1 z m 1.2,-7 0.9,5.3 h -1.8 z m 10.7,0.5 V 346 c 0,-1.9 -0.7,-2.9 -2.9,-2.9 h -3.2 v 13.2 h 3.4 c 2.2,0 3,-1 3,-2.9 v -1.7 c 0,-1.2 -0.5,-1.9 -1.6,-2.2 0.9,-0.4 1.3,-1.1 1.3,-2.2 m -3.9,-2.4 h 0.8 c 0.7,0 1.1,0.3 1.1,1.1 v 1.6 c 0,0.7 -0.3,1.1 -1,1.1 h -0.8 z m 2,8.4 c 0,0.7 -0.3,1.1 -1.1,1.1 h -1 v -4.1 h 0.9 c 0.8,0 1.1,0.4 1.1,1.1 z m 5.4,-10.2 h -2.2 v 13.1 h 4.8 v -1.8 h -2.6 z m 8.7,1.8 v -1.8 h -5.3 v 13.1 h 5.3 v -1.8 h -3.1 v -4 h 2.2 v -1.8 h -2.2 v -3.7 z m 7,11.5 c 2.3,0 3.1,-1.4 3.1,-3.3 v -2.3 h -2 v 2.4 c 0,0.8 -0.3,1.3 -1.1,1.3 -0.8,0 -1.1,-0.6 -1.1,-1.4 V 346 c 0,-0.8 0.3,-1.4 1.1,-1.4 0.8,0 1.1,0.5 1.1,1.3 v 1.7 h 2 V 346 c 0,-1.9 -0.7,-3.3 -3.1,-3.3 -2.3,0 -3.3,1.5 -3.3,3.6 v 6.4 c 0,2.2 1,3.7 3.3,3.7 m 4.2,-13.3 h 2.2 v 13.2 h -2.2 z m 7.1,13.1 v -11.3 h 1.8 v -1.8 h -5.9 v 1.8 h 1.8 v 11.3 z m 2.7,-13.1 h 2.2 v 13.2 h -2.2 z m 3.3,13.1 h 5.3 v -1.8 h -3.1 v -4 h 2.2 v -1.8 h -2.2 v -3.7 h 3.1 v -1.8 h -5.3 z m 9,-8.4 c -0.6,-0.6 -1,-1 -1,-1.8 v -0.3 c 0,-0.7 0.4,-1.1 1,-1.1 0.7,0 1,0.4 1,1.1 v 1.1 h 2 v -1.1 c 0,-1.9 -0.9,-3 -3.1,-3 -2.2,0 -3.1,1.3 -3.1,2.9 v 0.4 c 0,1.5 0.6,2.3 1.8,3.5 l 1.3,1.3 c 0.7,0.6 1,1.1 1,1.9 v 0.5 c 0,0.7 -0.3,1.2 -1,1.2 -0.8,0 -1.1,-0.4 -1.1,-1.2 v -1.8 h -2.1 v 1.8 c 0,1.7 0.9,3 3.1,3 2.2,0 3.2,-1.3 3.2,-3.1 v -0.6 c 0,-1.5 -0.6,-2.2 -1.8,-3.4 z m -103.5,14.6 -2.5,13.2 h 2.1 l 0.4,-2.4 h 2.3 l 0.4,2.4 h 2.3 l -2.5,-13.2 z m 0.3,8.9 0.9,-5.3 0.9,5.3 z m 10.4,-1.4 -2.4,-7.5 h -2.2 v 13.1 h 1.9 v -8.2 l 2.6,8.2 h 1.9 v -13.1 h -1.8 z m 6.7,-7.5 h -3.4 v 13.2 h 3.4 c 2.4,0 3.2,-1.5 3.2,-3.5 V 366 c 0,-2.1 -0.8,-3.6 -3.2,-3.6 m 1,10 c 0,0.8 -0.3,1.3 -1.3,1.3 h -0.9 v -9.5 h 0.9 c 0.9,0 1.3,0.5 1.3,1.3 z m 9.2,-10.2 c -2.3,0 -3.3,1.5 -3.3,3.6 v 6.4 c 0,2 1,3.6 3.3,3.6 2.3,0 3.1,-1.4 3.1,-3.3 v -2.3 h -2 v 2.4 c 0,0.8 -0.3,1.3 -1.1,1.3 -0.8,0 -1.1,-0.6 -1.1,-1.4 v -7.1 c 0,-0.8 0.3,-1.4 1.1,-1.4 0.8,0 1.1,0.5 1.1,1.3 v 1.7 h 2 v -1.6 c 0,-1.8 -0.7,-3.2 -3.1,-3.2 m 7.8,0 c -2.3,0 -3.3,1.5 -3.3,3.6 v 6.4 c 0,2 1,3.6 3.3,3.6 2.3,0 3.4,-1.5 3.4,-3.6 v -6.4 c 0,-2.1 -1,-3.6 -3.4,-3.6 m 1.2,10.3 c 0,0.8 -0.3,1.4 -1.1,1.4 -0.8,0 -1.1,-0.6 -1.1,-1.4 v -7.1 c 0,-0.8 0.3,-1.4 1.1,-1.4 0.8,0 1.1,0.6 1.1,1.4 z m 7.7,-2.7 -1.5,-7.4 h -2.6 v 13.1 h 1.9 V 367 l 1.7,8.5 h 1 l 1.5,-8.5 v 8.5 h 2 v -13.1 h -2.7 z m 9.5,0 -1.4,-7.4 H 894 v 13.1 h 1.8 V 367 h 0.1 l 1.6,8.5 h 1 L 900,367 h 0.1 v 8.5 h 2 v -13.1 h -2.8 z m 10,2.7 c 0,0.8 -0.3,1.3 -1.1,1.3 -0.8,0 -1.1,-0.5 -1.1,-1.3 v -10.2 h -2.2 v 10 c 0,2 1,3.4 3.3,3.4 2.2,0 3.1,-1.3 3.1,-3.4 v -10 h -2 z m 8,-2.6 -2.4,-7.5 h -2.2 v 13.1 h 1.9 v -8.2 l 2.6,8.2 h 1.9 V 362.4 H 916 Z m 3.3,-7.5 h 2.2 v 13.2 h -2.2 z m 3.4,1.8 h 1.8 v 11.3 h 2.3 v -11.3 h 1.8 v -1.8 h -5.9 z m 7.1,-1.8 h 2.2 v 13.2 h -2.2 z m 3.7,13.1 h 5.3 v -1.8 h -3.1 v -4 h 2.2 v -1.8 h -2.2 v -3.7 h 3.1 v -1.8 h -5.3 z m 9.6,-8.4 c -0.6,-0.6 -1,-1 -1,-1.8 V 365 c 0,-0.7 0.4,-1.1 1,-1.1 0.7,0 1,0.4 1,1.1 v 1.1 h 2 V 365 c 0,-1.9 -0.9,-3 -3.1,-3 -2.2,0 -3.1,1.3 -3.1,2.9 v 0.4 c 0,1.5 0.6,2.3 1.8,3.5 l 1.3,1.3 c 0.7,0.6 1,1.1 1,1.9 v 0.5 c 0,0.7 -0.3,1.2 -1,1.2 -0.8,0 -1.1,-0.4 -1.1,-1.2 v -1.8 h -2.1 v 1.8 c 0,1.7 0.9,3 3.1,3 2.2,0 3.2,-1.3 3.2,-3.1 V 372 c 0,-1.5 -0.6,-2.2 -1.8,-3.4 z m 86,-16.9 2.1,6 h 2.3 l -2.1,-6 c 1.3,-0.3 1.8,-1.1 1.8,-2.5 V 346 c 0,-1.8 -0.8,-3 -3,-3 h -3.2 v 13.2 h 2.2 v -6 z m 0,-5.3 h 0.7 c 0.8,0 1.1,0.3 1.1,1.1 v 1.9 c 0,0.7 -0.3,1.1 -1.1,1.1 h -0.7 z m 5.2,11.3 h 5.3 v -1.8 h -3.1 v -4 h 2.2 v -1.8 h -2.2 v -3.7 h 3.1 V 343 h -5.3 z m 6.3,-4.6 v 1.8 c 0,1.7 0.9,3 3.1,3 2.3,0 3.2,-1.3 3.2,-3.1 v -0.6 c 0,-1.5 -0.6,-2.2 -1.8,-3.4 l -1.4,-1.4 c -0.6,-0.6 -1,-1 -1,-1.8 v -0.3 c 0,-0.7 0.4,-1.1 1,-1.1 0.7,0 1,0.4 1,1.1 v 1.1 h 2 v -1.1 c 0,-1.9 -0.9,-3 -3.1,-3 -2.1,0 -3.1,1.3 -3.1,2.9 v 0.4 c 0,1.5 0.6,2.3 1.8,3.5 l 1.3,1.3 c 0.7,0.6 1,1.1 1,1.9 v 0.5 c 0,0.7 -0.3,1.2 -1,1.2 -0.8,0 -1.1,-0.4 -1.1,-1.2 v -1.8 h -1.9 z m 10.8,-8.6 h -3.3 v 13.2 h 2.2 v -4.5 h 1.1 c 2.2,0 3,-1.1 3,-3 V 346 c 0,-1.8 -0.8,-3 -3,-3 m 0.8,5.9 c 0,0.7 -0.3,1.1 -1.1,1.1 h -0.8 v -5.2 h 0.8 c 0.8,0 1.1,0.3 1.1,1.1 z m 10,3.9 v -6.4 c 0,-2.1 -1,-3.6 -3.4,-3.6 -2.3,0 -3.3,1.5 -3.3,3.6 v 6.4 c 0,2 1,3.6 3.3,3.6 2.4,0 3.4,-1.6 3.4,-3.6 m -4.4,0.4 v -7.1 c 0,-0.8 0.3,-1.4 1.1,-1.4 0.8,0 1.1,0.6 1.1,1.4 v 7.1 c 0,0.8 -0.3,1.4 -1.1,1.4 -0.8,-0.1 -1.1,-0.6 -1.1,-1.4 m 10.2,-2.6 -2.4,-7.6 h -2.1 v 13.2 h 1.8 v -8.3 l 2.6,8.3 h 2 V 343 h -1.9 z m 3,1 v 1.8 c 0,1.7 0.9,3 3.1,3 2.2,0 3.2,-1.3 3.2,-3.1 v -0.6 c 0,-1.5 -0.6,-2.2 -1.8,-3.4 l -1.4,-1.4 c -0.6,-0.6 -1,-1 -1,-1.8 v -0.3 c 0,-0.7 0.4,-1.1 1,-1.1 0.7,0 1,0.4 1,1.1 v 1.1 h 2 v -1.1 c 0,-1.9 -0.9,-3 -3.1,-3 -2.2,0 -3.1,1.3 -3.1,2.9 v 0.4 c 0,1.5 0.6,2.3 1.8,3.5 l 1.3,1.3 c 0.7,0.6 1,1.1 1,1.9 v 0.5 c 0,0.7 -0.3,1.2 -1,1.2 -0.8,0 -1.1,-0.4 -1.1,-1.2 v -1.8 h -1.9 z m 7.5,-8.6 h 2.2 v 13.2 h -2.2 z m 9.6,4.3 V 346 c 0,-1.9 -0.7,-2.9 -2.9,-2.9 h -3.2 v 13.2 h 3.4 c 2.2,0 3,-1 3,-2.9 v -1.7 c 0,-1.2 -0.5,-1.9 -1.6,-2.2 0.9,-0.4 1.3,-1.1 1.3,-2.2 m -4,-2.4 h 0.8 c 0.7,0 1.1,0.3 1.1,1.1 v 1.6 c 0,0.7 -0.3,1.1 -1,1.1 h -0.8 z m 2.1,8.4 c 0,0.7 -0.3,1.1 -1.1,1.1 h -1 v -4.1 h 0.9 c 0.8,0 1.1,0.4 1.1,1.1 z m 8.1,1.1 h -2.6 V 343 h -2.2 v 13.2 h 4.8 z m 6.3,-9.5 V 343 h -5.3 v 13.2 h 5.3 v -1.8 h -3.1 v -4 h 2.2 v -1.8 h -2.2 v -3.7 z m -67.3,27.5 v -2.3 h -2 v 2.4 c 0,0.8 -0.3,1.3 -1.1,1.3 -0.8,0 -1.1,-0.6 -1.1,-1.4 v -7.1 c 0,-0.8 0.3,-1.4 1.1,-1.4 0.8,0 1.1,0.5 1.1,1.3 v 1.7 h 2 v -1.6 c 0,-1.9 -0.7,-3.3 -3.1,-3.3 -2.3,0 -3.3,1.5 -3.3,3.6 v 6.4 c 0,2 1,3.6 3.3,3.6 2.3,0.1 3.1,-1.3 3.1,-3.2 m 1.4,-6.6 v 6.4 c 0,2 1,3.6 3.3,3.6 2.3,0 3.4,-1.5 3.4,-3.6 v -6.4 c 0,-2.1 -1,-3.6 -3.4,-3.6 -2.3,0 -3.3,1.5 -3.3,3.6 m 4.5,-0.4 v 7.1 c 0,0.8 -0.3,1.4 -1.1,1.4 -0.8,0 -1.1,-0.6 -1.1,-1.4 v -7.1 c 0,-0.8 0.4,-1.4 1.1,-1.4 0.7,0 1.1,0.6 1.1,1.4 m 8.2,4.5 -2.4,-7.5 h -2.2 v 13.1 h 1.9 v -8.3 l 2.6,8.3 h 1.9 v -13.1 h -1.8 z m 3.2,-4.8 v 0.4 c 0,1.5 0.6,2.3 1.8,3.5 l 1.3,1.3 c 0.7,0.6 1,1.1 1,1.9 v 0.5 c 0,0.7 -0.3,1.2 -1,1.2 -0.8,0 -1.1,-0.4 -1.1,-1.2 v -1.8 h -2.1 v 1.8 c 0,1.7 0.9,3 3.1,3 2.2,0 3.2,-1.3 3.2,-3.1 V 372 c 0,-1.5 -0.6,-2.2 -1.8,-3.4 l -1.4,-1.4 c -0.6,-0.6 -1,-1 -1,-1.8 v -0.3 c 0,-0.7 0.4,-1.1 1,-1.1 0.7,0 1,0.4 1,1.1 v 1.1 h 2 v -1.1 c 0,-1.9 -0.9,-3 -3.1,-3 -2,0.1 -2.9,1.4 -2.9,3 m 14.1,7.2 v -10 h -2 v 10.2 c 0,0.8 -0.3,1.3 -1.1,1.3 -0.8,0 -1.1,-0.5 -1.1,-1.3 v -10.2 h -2.2 v 10 c 0,2 1,3.4 3.3,3.4 2.2,0 3.1,-1.4 3.1,-3.4 m 5.5,-2.5 -1.5,-7.4 h -2.6 v 13.1 h 1.9 V 367 l 1.7,8.5 h 1 l 1.5,-8.5 v 8.5 h 2.1 v -13.1 h -2.8 z m 5.5,5.7 h 2.2 V 371 h 1.1 c 2.2,0 3,-1.1 3,-3 v -2.8 c 0,-1.8 -0.8,-3 -3,-3 h -3.3 z m 2.2,-11.3 h 0.8 c 0.8,0 1.1,0.3 1.1,1.1 v 3 c 0,0.7 -0.3,1.1 -1.1,1.1 h -0.8 z m 8.9,11.3 v -11.3 h 1.8 v -1.8 h -5.8 v 1.8 h 1.8 v 11.3 z m 2.9,-13.1 h 2.2 v 13.2 h -2.2 z m 10.2,9.7 v -6.4 c 0,-2.1 -1,-3.6 -3.4,-3.6 -2.3,0 -3.3,1.5 -3.3,3.6 v 6.4 c 0,2 1,3.6 3.3,3.6 2.4,0 3.4,-1.5 3.4,-3.6 m -4.5,0.4 v -7.1 c 0,-0.8 0.3,-1.4 1.1,-1.4 0.8,0 1.1,0.6 1.1,1.4 v 7.1 c 0,0.8 -0.3,1.4 -1.1,1.4 -0.8,-0.1 -1.1,-0.6 -1.1,-1.4 m 7.6,-5.3 2.6,8.3 h 1.9 v -13.1 h -1.8 v 7.5 l -2.4,-7.5 h -2.2 v 13.1 h 1.9 z M 135.3,532.4 v -6.5 c 0,-2.1 1,-3.6 3.4,-3.6 2.5,0 3.2,1.4 3.2,3.4 v 1.6 h -2.1 v -1.8 c 0,-0.8 -0.3,-1.3 -1.1,-1.3 -0.8,0 -1.1,0.6 -1.1,1.4 v 7.2 c 0,0.8 0.3,1.4 1.1,1.4 0.8,0 1.1,-0.5 1.1,-1.3 v -2.5 h 2.1 v 2.3 c 0,1.9 -0.8,3.3 -3.2,3.3 -2.4,0 -3.4,-1.5 -3.4,-3.6 z m 8,-10 h 2.3 V 534 h 2.7 v 1.8 h -5 z m 6.2,0 h 2.3 v 13.4 h -2.3 z m 10.2,4.7 -1.6,8.7 h -1 l -1.7,-8.7 v 8.7 h -1.9 v -13.4 h 2.6 l 1.5,7.6 1.3,-7.6 h 2.9 v 13.4 h -2.1 z m 3.1,8.7 2.5,-13.4 h 2.6 l 2.6,13.4 h -2.3 l -0.4,-2.5 h -2.4 l -0.4,2.5 z m 2.9,-4.2 h 1.8 l -0.9,-5.4 z m 4.5,-9.2 h 6 v 1.8 h -1.9 v 11.6 H 172 v -11.6 h -1.9 z m 7.3,0 h 5.4 v 1.8 h -3.1 v 3.8 h 2.2 v 1.8 h -2.2 v 4.1 h 3.1 v 1.8 h -5.4 z m -42.6,32.5 2.5,-13.4 h 2.6 l 2.6,13.4 h -2.3 l -0.4,-2.5 h -2.4 l -0.4,2.5 z m 2.9,-4.3 h 1.8 l -0.9,-5.4 z m 5.5,0.8 v -6.5 c 0,-2.1 1,-3.6 3.4,-3.6 2.5,0 3.2,1.4 3.2,3.4 v 1.6 h -2.1 v -1.8 c 0,-0.8 -0.3,-1.3 -1.1,-1.3 -0.8,0 -1.1,0.6 -1.1,1.4 v 7.2 c 0,0.8 0.3,1.4 1.1,1.4 0.8,0 1.1,-0.5 1.1,-1.3 v -2.5 h 2.1 v 2.3 c 0,1.9 -0.8,3.3 -3.2,3.3 -2.4,0 -3.4,-1.5 -3.4,-3.6 z m 7.3,-10 h 6 v 1.8 h -1.9 v 11.6 h -2.3 v -11.6 h -1.9 z m 7.3,0 h 2.3 v 13.4 h -2.3 z m 3.7,10 v -6.5 c 0,-2.1 1,-3.6 3.4,-3.6 2.4,0 3.4,1.5 3.4,3.6 v 6.5 c 0,2.1 -1,3.6 -3.4,3.6 -2.4,0 -3.4,-1.5 -3.4,-3.6 z m 4.6,0.4 v -7.2 c 0,-0.8 -0.4,-1.4 -1.2,-1.4 -0.8,0 -1.1,0.6 -1.1,1.4 v 7.2 c 0,0.8 0.4,1.4 1.1,1.4 0.8,-0.1 1.2,-0.6 1.2,-1.4 z m 5.6,-5.4 v 8.4 h -1.9 v -13.4 h 2.2 l 2.4,7.7 v -7.7 h 1.9 v 13.4 h -2 z"
       id="path4" />
    <g
       class="st1"
       id="g5">
      <path
         class="st2"
         d="m 319.4,522.4 h 2.2 v 13.2 h -2.2 z m 3.5,13.2 h 2.2 v -5.8 h 2.2 V 528 h -2.2 v -3.8 h 3 v -1.8 h -5.2 z m 11.4,-11.4 v -1.8 h -5.2 v 13.2 h 5.2 v -1.8 h -3 v -4 h 2.2 V 528 h -2.2 v -3.8 z m 10.6,6.7 c 0,-1.2 -0.5,-1.9 -1.6,-2.2 0.9,-0.3 1.3,-1 1.3,-2.1 v -1.3 c 0,-1.9 -0.7,-2.9 -2.9,-2.9 h -3.2 v 13.2 h 3.4 c 2.2,0 3,-1 3,-2.9 z m -4.2,-6.7 h 0.8 c 0.7,0 1.1,0.4 1.1,1.1 v 1.6 c 0,0.7 -0.3,1.1 -1,1.1 h -0.8 v -3.8 z m 2,8.5 c 0,0.7 -0.4,1.1 -1.1,1.1 h -1 v -4.1 h 1 c 0.8,0 1.1,0.4 1.1,1.1 z m 3.2,2.9 h 5.3 v -1.8 h -3.1 v -4 h 2.2 V 528 h -2.2 v -3.8 h 3.1 v -1.8 h -5.3 z m 6.6,-13.2 v 13.2 h 4.9 v -1.8 h -2.7 v -11.4 z m 5.7,3.4 v 6.4 c 0,2 1,3.6 3.3,3.6 2.3,0 3.4,-1.5 3.4,-3.6 v -6.4 c 0,-2.1 -1,-3.6 -3.4,-3.6 -2.3,0.1 -3.3,1.6 -3.3,3.6 m 4.5,-0.3 v 7.1 c 0,0.8 -0.3,1.4 -1.1,1.4 -0.8,0 -1.1,-0.6 -1.1,-1.4 v -7.1 c 0,-0.8 0.4,-1.4 1.1,-1.4 0.7,0 1.1,0.6 1.1,1.4 m 6.2,5.3 -1.1,-8.4 h -2.1 l 1.8,13.2 h 2 l 1.3,-8.2 1.3,8.2 h 2.1 l 1.7,-13.2 H 374 l -1,8.4 -1.2,-8.4 H 370 Z M 315,554.9 h 2 l 1.3,-8.2 1.3,8.2 h 2.1 l 1.7,-13.2 h -1.9 l -1,8.4 -1.2,-8.4 h -1.8 l -1.1,8.4 -1.1,-8.4 h -2.1 z m 8.1,0 h 2.1 l 0.4,-2.4 h 2.3 l 0.4,2.4 h 2.3 l -2.5,-13.2 h -2.5 z m 3.7,-9.5 0.9,5.3 h -1.8 z m 7.4,9.5 v -11.4 h 1.9 v -1.8 h -5.9 v 1.8 h 1.8 v 11.4 z m 8.2,-11.4 v -1.8 h -5.3 v 13.2 h 5.3 v -1.8 h -3.1 v -4 h 2.2 v -1.8 h -2.2 v -3.8 z m 7.4,2.8 v -1.7 c 0,-1.8 -0.8,-2.9 -3,-2.9 h -3.2 v 13.2 h 2.2 v -6 l 2.1,6 h 2.3 l -2.1,-6 c 1.2,-0.3 1.7,-1.1 1.7,-2.6 m -2.2,0.2 c 0,0.7 -0.3,1.1 -1.1,1.1 h -0.7 v -4.1 h 0.7 c 0.8,0 1.1,0.3 1.1,1.1 z m -34.1,-24.1 v 13.2 h 4.9 v -1.8 h -2.7 v -11.4 z"
         id="path5" />
    </g>
    <path
       class="st3"
       d="m 493.1,522.4 v 13.2 h 4.8 v -1.8 h -2.6 v -11.4 z m 6,0 h 2.2 v 13.2 h -2.2 z m 3.7,13.2 h 2.2 v -5.8 h 2.2 V 528 H 505 v -3.8 h 3 v -1.8 h -5.2 z m 6.3,0 h 5.3 v -1.8 h -3.1 v -4 h 2.2 V 528 h -2.2 v -3.8 h 3.1 v -1.8 h -5.3 z M 493,551.5 v -6.3 c 0,-2 1,-3.5 3.3,-3.5 2.3,0 3.3,1.5 3.3,3.5 v 6.3 c 0,2 -1,3.5 -3.3,3.5 -2.2,0 -3.3,-1.5 -3.3,-3.5 m 4.5,0.3 v -7 c 0,-0.8 -0.3,-1.4 -1.1,-1.4 -0.8,0 -1.1,0.6 -1.1,1.4 v 7 c 0,0.8 0.3,1.4 1.1,1.4 0.8,0 1.1,-0.6 1.1,-1.4 m 5.3,-5.2 v 8.3 H 501 v -13.1 h 2.1 l 2.4,7.5 v -7.5 h 1.8 v 13.1 h -1.9 z m 9.3,-4.8 h 2.2 v 11.3 h 2.7 v 1.8 h -4.9 z m 5.5,13.1 2.5,-13.1 h 2.5 l 2.5,13.1 h -2.3 l -0.4,-2.4 h -2.3 l -0.4,2.4 z m 2.8,-4.2 h 1.8 l -0.9,-5.3 z m 7.4,-4.1 v 8.3 H 526 v -13.1 h 2.2 l 2.3,7.5 v -7.5 h 1.9 v 13.1 h -2 z m 12.6,-1.3 v 6.1 c 0,2 -0.8,3.5 -3.2,3.5 h -3.4 v -13.1 h 3.4 c 2.4,0 3.2,1.4 3.2,3.5 m -3.5,7.8 c 0.9,0 1.3,-0.5 1.3,-1.3 v -6.9 c 0,-0.8 -0.3,-1.3 -1.3,-1.3 H 536 v 9.5 z m 139.6,-27.7 c 0,-1.8 -0.8,-2.9 -3,-2.9 h -3.3 v 13.2 h 2.2 v -4.5 h 1.1 c 2.2,0 3,-1.1 3,-3 z m -2.2,2.9 c 0,0.7 -0.3,1.1 -1.1,1.1 h -0.8 v -5.2 h 0.8 c 0.8,0 1.1,0.4 1.1,1.1 z m 8.5,-4.1 v -1.8 h -5.3 v 13.2 h 5.3 v -1.8 h -3.1 v -4 h 2.2 V 528 h -2.2 v -3.8 z m 5.8,-1.8 h -2.5 l -2.5,13.2 h 2.1 l 0.4,-2.4 h 2.3 l 0.4,2.4 h 2.3 z m -2.2,9 0.9,-5.3 0.9,5.3 z m 11.9,-4.3 v -1.6 c 0,-1.9 -0.7,-3.3 -3.1,-3.3 -2.3,0 -3.3,1.5 -3.3,3.6 v 6.4 c 0,2 1,3.6 3.3,3.6 2.3,0 3.1,-1.4 3.1,-3.3 v -2.3 h -2 v 2.4 c 0,0.8 -0.3,1.3 -1.1,1.3 -0.8,0 -1.1,-0.6 -1.1,-1.4 v -7.1 c 0,-0.8 0.3,-1.4 1.1,-1.4 0.8,0 1.1,0.5 1.1,1.3 v 1.7 z m 6.5,6.7 h -3.1 v -4 h 2.2 V 528 h -2.2 v -3.8 h 3.1 v -1.8 h -5.3 v 13.2 h 5.3 z m 9.3,-11.4 h -2.5 l -2.5,13.2 h 2.1 l 0.4,-2.4 h 2.3 l 0.4,2.4 h 2.3 z m -2.2,9 0.9,-5.3 0.9,5.3 z m 5.5,4.2 h 1.8 v -8.3 l 2.6,8.3 h 2 v -13.2 h -1.9 v 7.6 l -2.4,-7.6 h -2.1 z m 7.8,0 h 3.4 c 2.4,0 3.2,-1.5 3.2,-3.5 V 526 c 0,-2 -0.8,-3.5 -3.2,-3.5 h -3.4 z m 2.2,-11.4 h 0.9 c 0.9,0 1.3,0.5 1.3,1.3 v 6.9 c 0,0.8 -0.3,1.3 -1.3,1.3 h -0.9 z M 673.1,555 c 2.2,0 3,-1.2 3,-3.1 v -10.2 h -2.2 v 10.4 c 0,0.7 -0.2,1.1 -0.8,1.1 -0.6,0 -0.8,-0.4 -0.8,-1 v -2.7 h -2.1 v 2.6 c 0,1.7 0.6,2.9 2.9,2.9 m 7.7,0 c 2.3,0 3.1,-1.3 3.1,-3.4 v -10 h -2 v 10.2 c 0,0.8 -0.3,1.3 -1.1,1.3 -0.8,0 -1.1,-0.5 -1.1,-1.3 v -10.2 h -2.2 v 10 c 0,2.1 1,3.4 3.3,3.4 m 4.3,-4.7 v 1.8 c 0,1.7 0.9,3 3.1,3 2.2,0 3.2,-1.3 3.2,-3.1 v -0.6 c 0,-1.5 -0.6,-2.2 -1.8,-3.4 l -1.4,-1.4 c -0.6,-0.6 -1,-1 -1,-1.8 v -0.3 c 0,-0.7 0.4,-1.1 1,-1.1 0.7,0 1,0.4 1,1.1 v 1.1 h 2 v -1.1 c 0,-1.9 -0.9,-3 -3.1,-3 -2.2,0 -3.1,1.3 -3.1,2.9 v 0.4 c 0,1.5 0.6,2.3 1.8,3.5 l 1.3,1.3 c 0.7,0.6 1,1.1 1,1.9 v 0.5 c 0,0.7 -0.3,1.2 -1,1.2 -0.8,0 -1.1,-0.4 -1.1,-1.2 v -1.8 z m 11,4.6 v -11.4 h 1.8 v -1.8 H 692 v 1.8 h 1.8 v 11.4 z m 3,-13.2 h 2.2 v 13.2 h -2.2 z m 10.1,4.7 v -1.6 c 0,-1.9 -0.7,-3.3 -3.1,-3.3 -2.3,0 -3.3,1.5 -3.3,3.6 v 6.4 c 0,2 1,3.6 3.3,3.6 2.3,0 3.1,-1.4 3.1,-3.3 v -2.3 h -2 v 2.4 c 0,0.8 -0.3,1.3 -1.1,1.3 -0.8,0 -1.1,-0.6 -1.1,-1.4 v -7.1 c 0,-0.8 0.3,-1.4 1.1,-1.4 0.8,0 1.1,0.5 1.1,1.3 v 1.7 z m 6.6,-2.9 v -1.8 h -5.2 v 13.2 h 5.2 v -1.8 h -3 v -4 h 2.2 v -1.8 h -2.2 v -3.8 z m 132.7,-21.1 h 3.3 c 2.2,0 3,1.1 3,3 v 2.8 c 0,1.8 -0.8,3 -3,3 h -1.1 v 4.5 h -2.2 z m 2.2,1.8 v 5.2 h 0.8 c 0.8,0 1.1,-0.4 1.1,-1.1 v -3 c 0,-0.7 -0.3,-1.1 -1.1,-1.1 z m 4.4,11.4 2.5,-13.2 h 2.5 l 2.5,13.2 h -2.3 l -0.4,-2.4 h -2.3 l -0.4,2.4 z m 2.8,-4.2 h 1.8 l -0.9,-5.3 z m 8,-1.9 v 6 h -2.2 v -13.2 h 3.2 c 2.2,0 3,1.1 3,3 v 1.7 c 0,1.4 -0.5,2.2 -1.8,2.5 l 2.1,6 H 868 Z m 0,-5.3 v 4.1 h 0.7 c 0.8,0 1.1,-0.4 1.1,-1.1 v -1.9 c 0,-0.7 -0.3,-1.1 -1.1,-1.1 z m 4.9,-1.8 h 5.9 v 1.8 h -1.9 v 11.4 h -2.2 v -11.4 h -1.8 z m 9.1,4.9 v 8.3 h -1.8 v -13.2 h 2.1 l 2.4,7.6 v -7.6 h 1.9 v 13.2 h -2 z m 6.4,-4.9 h 5.2 v 1.8 h -3 v 3.8 h 2.2 v 1.8 h -2.2 v 4 h 3 v 1.8 h -5.2 z m 8.8,7.1 v 6 h -2.2 v -13.2 h 3.2 c 2.2,0 3,1.1 3,3 v 1.7 c 0,1.4 -0.5,2.2 -1.8,2.5 l 2.1,6 h -2.3 z m 0,-5.3 v 4.1 h 0.7 c 0.8,0 1.1,-0.4 1.1,-1.1 v -1.9 c 0,-0.7 -0.3,-1.1 -1.1,-1.1 z m 5.2,8.5 V 531 h 2.1 v 1.8 c 0,0.7 0.3,1.2 1.1,1.2 0.7,0 1,-0.5 1,-1.2 v -0.5 c 0,-0.8 -0.3,-1.2 -1,-1.9 l -1.3,-1.3 c -1.3,-1.2 -1.8,-2 -1.8,-3.5 v -0.4 c 0,-1.6 1,-2.9 3.1,-2.9 2.2,0 3.1,1.1 3.1,3 v 1.1 h -2 v -1.1 c 0,-0.8 -0.3,-1.1 -1,-1.1 -0.6,0 -1,0.3 -1,1.1 v 0.3 c 0,0.7 0.4,1.2 1,1.8 l 1.4,1.4 c 1.2,1.2 1.8,2 1.8,3.4 v 0.6 c 0,1.8 -1,3.1 -3.2,3.1 -2.2,0 -3.3,-1.4 -3.3,-3.2 m 12,-2.9 h -2.1 v 5.8 H 908 v -13.2 h 2.2 v 5.6 h 2.1 v -5.6 h 2.3 v 13.2 h -2.3 z m 3.7,-7.4 h 2.2 v 13.2 H 916 Z m 3.7,0 h 3.3 c 2.2,0 3,1.1 3,3 v 2.8 c 0,1.8 -0.8,3 -3,3 h -1.1 v 4.5 h -2.2 z m 2.2,1.8 v 5.2 h 0.8 c 0.8,0 1.1,-0.4 1.1,-1.1 v -3 c 0,-0.7 -0.3,-1.1 -1.1,-1.1 z m 5,8.5 V 531 h 2.1 v 1.8 c 0,0.7 0.3,1.2 1.1,1.2 0.7,0 1,-0.5 1,-1.2 v -0.5 c 0,-0.8 -0.3,-1.2 -1,-1.9 l -1.3,-1.3 c -1.3,-1.2 -1.8,-2 -1.8,-3.5 v -0.4 c 0,-1.6 1,-2.9 3.1,-2.9 2.2,0 3.1,1.1 3.1,3 v 1.1 h -2 v -1.1 c 0,-0.8 -0.3,-1.1 -1,-1.1 -0.6,0 -1,0.3 -1,1.1 v 0.3 c 0,0.7 0.4,1.2 1,1.8 l 1.4,1.4 c 1.2,1.2 1.8,2 1.8,3.4 v 0.6 c 0,1.8 -1,3.1 -3.2,3.1 -2.4,-0.2 -3.3,-1.4 -3.3,-3.2 m -78.4,8.8 h 5.3 v 1.9 h -3 v 3.8 h 2.2 v 1.8 h -2.2 v 5.9 h -2.3 z m 6.1,9.9 V 545 c 0,-2.1 1,-3.6 3.4,-3.6 2.4,0 3.4,1.5 3.4,3.6 v 6.5 c 0,2.1 -1,3.6 -3.4,3.6 -2.4,-0.1 -3.4,-1.6 -3.4,-3.7 m 4.5,0.4 v -7.2 c 0,-0.8 -0.4,-1.4 -1.2,-1.4 -0.8,0 -1.1,0.6 -1.1,1.4 v 7.2 c 0,0.8 0.4,1.4 1.1,1.4 0.9,0 1.2,-0.6 1.2,-1.4 m 6,-3 v 6.1 h -2.2 v -13.4 h 3.3 c 2.3,0 3.1,1.1 3.1,3 v 1.7 c 0,1.4 -0.5,2.3 -1.8,2.6 l 2.1,6.1 h -2.4 z m 0,-5.4 v 4.2 h 0.7 c 0.8,0 1.1,-0.4 1.1,-1.1 v -2 c 0,-0.7 -0.3,-1.1 -1.1,-1.1 z m 7.6,-1.9 h 6 v 1.9 h -1.8 v 11.5 h -2.3 v -11.5 h -1.9 z m 11.5,7.5 H 882 v 5.9 h -2.3 v -13.4 h 2.3 v 5.7 h 2.2 v -5.7 h 2.2 v 13.4 h -2.2 z m 3.7,-7.5 h 5.3 v 1.9 h -3.1 v 3.8 h 2.3 v 1.8 h -2.3 v 4 h 3.1 v 1.9 h -5.3 z m 12.5,6.2 h 3.2 v 7.1 H 902 v -1.5 c -0.3,1 -0.9,1.6 -2.1,1.6 -1.9,0 -2.8,-1.5 -2.8,-3.6 V 545 c 0,-2.1 1,-3.6 3.4,-3.6 2.5,0 3.2,1.4 3.2,3.3 v 1.2 h -2 v -1.4 c 0,-0.8 -0.3,-1.3 -1.1,-1.3 -0.8,0 -1.2,0.6 -1.2,1.4 v 7.2 c 0,0.8 0.3,1.4 1.1,1.4 0.7,0 1.1,-0.4 1.1,-1.3 v -2.4 h -1.1 v -1.8 z m 4.5,3.7 V 545 c 0,-2.1 1,-3.6 3.4,-3.6 2.4,0 3.4,1.5 3.4,3.6 v 6.5 c 0,2.1 -1,3.6 -3.4,3.6 -2.4,-0.1 -3.4,-1.6 -3.4,-3.7 m 4.5,0.4 v -7.2 c 0,-0.8 -0.4,-1.4 -1.2,-1.4 -0.8,0 -1.1,0.6 -1.1,1.4 v 7.2 c 0,0.8 0.4,1.4 1.1,1.4 0.9,0 1.2,-0.6 1.2,-1.4 m 2.9,3.1 2.5,-13.4 h 2.6 l 2.5,13.4 h -2.3 l -0.4,-2.4 h -2.4 l -0.4,2.4 z m 2.8,-4.3 h 1.8 l -0.9,-5.4 z m 6.1,-9.1 h 2.3 V 553 h 2.7 v 1.9 h -5 z M 927,552 v -1.8 h 2.1 v 1.8 c 0,0.7 0.3,1.2 1.1,1.2 0.7,0 1,-0.5 1,-1.2 v -0.5 c 0,-0.8 -0.3,-1.2 -1,-1.9 l -1.3,-1.3 c -1.3,-1.3 -1.9,-2 -1.9,-3.6 v -0.5 c 0,-1.7 1,-2.9 3.2,-2.9 2.2,0 3.1,1.1 3.1,3 v 1.1 h -2 v -1.2 c 0,-0.8 -0.4,-1.1 -1.1,-1.1 -0.6,0 -1.1,0.4 -1.1,1.1 v 0.3 c 0,0.7 0.4,1.2 1.1,1.8 l 1.4,1.4 c 1.2,1.2 1.8,2 1.8,3.5 v 0.7 c 0,1.8 -1,3.1 -3.3,3.1 -2.3,0 -3.1,-1.2 -3.1,-3"
       id="path6" />
    <g
       class="st1"
       id="g7">
      <path
         d="m 1024.4,632.9 h 4.1 v 9.1 h -2.1 v -1.9 c -0.4,1.3 -1.2,2.1 -2.7,2.1 -2.5,0 -3.6,-2 -3.6,-4.6 v -8.2 c 0,-2.7 1.3,-4.6 4.3,-4.6 3.2,0 4.1,1.8 4.1,4.3 v 1.5 h -2.6 v -1.7 c 0,-1.1 -0.4,-1.7 -1.4,-1.7 -1,0 -1.5,0.7 -1.5,1.8 v 9.1 c 0,1 0.4,1.8 1.4,1.8 0.9,0 1.4,-0.5 1.4,-1.6 v -3 h -1.4 z m 5.5,-7.9 h 2.8 v 14.6 h 3.5 v 2.4 h -6.3 z m 6.8,12.6 v -8.2 c 0,-2.7 1.3,-4.6 4.3,-4.6 3,0 4.3,1.9 4.3,4.6 v 8.2 c 0,2.6 -1.3,4.6 -4.3,4.6 -2.9,0 -4.3,-2 -4.3,-4.6 m 5.9,0.4 v -9.1 c 0,-1 -0.5,-1.8 -1.5,-1.8 -1,0 -1.5,0.7 -1.5,1.8 v 9.1 c 0,1 0.5,1.8 1.5,1.8 1,0 1.5,-0.7 1.5,-1.8 m 4.2,-13 h 4.1 c 2.9,0 3.8,1.3 3.8,3.7 v 1.7 c 0,1.4 -0.5,2.3 -1.7,2.7 1.4,0.3 2.1,1.3 2.1,2.8 v 2.3 c 0,2.4 -1.1,3.7 -3.9,3.7 h -4.5 z m 2.9,7.1 h 1 c 0.9,0 1.4,-0.5 1.4,-1.4 v -2.1 c 0,-0.9 -0.4,-1.4 -1.4,-1.4 h -1 z m 0,2.2 v 5.3 h 1.3 c 1,0 1.4,-0.5 1.4,-1.4 v -2.6 c 0,-0.9 -0.4,-1.4 -1.4,-1.4 h -1.3 z m 6.1,7.7 3.2,-17 h 3.3 l 3.2,17 h -2.9 l -0.5,-3.1 h -3 l -0.5,3.1 z m 3.6,-5.4 h 2.3 l -1.1,-6.8 z m 7.1,-11.6 h 2.8 v 14.6 h 3.4 v 2.4 h -6.2 z m 14,7.9 h 4.1 v 9.1 h -2.1 v -1.9 c -0.4,1.3 -1.2,2.1 -2.7,2.1 -2.5,0 -3.6,-2 -3.6,-4.6 v -8.2 c 0,-2.7 1.3,-4.6 4.3,-4.6 3.2,0 4.1,1.8 4.1,4.3 v 1.5 h -2.6 v -1.7 c 0,-1.1 -0.4,-1.7 -1.4,-1.7 -1,0 -1.5,0.7 -1.5,1.8 v 9.1 c 0,1 0.4,1.8 1.4,1.8 0.9,0 1.4,-0.5 1.4,-1.6 v -3 h -1.4 z m 5.5,4.7 v -8.2 c 0,-2.7 1.3,-4.6 4.3,-4.6 3,0 4.3,1.9 4.3,4.6 v 8.2 c 0,2.6 -1.3,4.6 -4.3,4.6 -3,0 -4.3,-2 -4.3,-4.6 m 5.8,0.4 v -9.1 c 0,-1 -0.5,-1.8 -1.5,-1.8 -1,0 -1.5,0.7 -1.5,1.8 v 9.1 c 0,1 0.5,1.8 1.5,1.8 1,0 1.5,-0.7 1.5,-1.8 m 3.4,4 3.2,-17 h 3.3 l 3.2,17 h -2.9 l -0.5,-3.1 h -3 l -0.5,3.1 z m 3.6,-5.4 h 2.3 l -1.1,-6.8 z m 7,-11.6 h 2.9 v 14.6 h 3.4 v 2.4 h -6.3 z m 6.9,13.3 V 636 h 2.7 v 2.3 c 0,1 0.4,1.5 1.4,1.5 0.9,0 1.3,-0.6 1.3,-1.5 v -0.7 c 0,-1 -0.4,-1.6 -1.3,-2.4 l -1.7,-1.7 c -1.6,-1.6 -2.4,-2.6 -2.4,-4.5 v -0.6 c 0,-2.1 1.2,-3.7 4,-3.7 2.9,0 4,1.4 4,3.9 v 1.4 h -2.6 v -1.5 c 0,-1 -0.5,-1.5 -1.4,-1.5 -0.8,0 -1.4,0.5 -1.4,1.4 v 0.3 c 0,1 0.5,1.5 1.4,2.3 l 1.8,1.8 c 1.6,1.6 2.3,2.5 2.3,4.4 v 0.8 c 0,2.3 -1.3,4 -4.2,4 -2.7,0.2 -3.9,-1.5 -3.9,-3.7 M 991,625 h 7.6 v 2.3 h -2.4 V 642 h -2.9 V 627.3 H 991 Z m 14.3,9.5 h -2.8 v 7.5 h -2.8 v -17 h 2.8 v 7.2 h 2.8 V 625 h 2.9 v 17 h -2.9 z m 4.3,-9.5 h 6.8 v 2.3 h -4 v 4.9 h 2.9 v 2.3 h -2.9 v 5.1 h 4 v 2.4 h -6.8 z M 997,649.9 h -3.4 v 3.8 h -0.7 v -7.9 h 4.4 v 0.7 h -3.7 v 2.8 h 3.4 z m 3,3.9 c -1.8,0 -2.2,-1.1 -2.2,-2.7 0,-1.6 0.4,-2.7 2.2,-2.7 1.8,0 2.2,1.1 2.2,2.7 0,1.6 -0.4,2.7 -2.2,2.7 m 0,-4.8 c -1.4,0 -1.5,0.9 -1.5,2.1 0,1.2 0.1,2.1 1.5,2.1 1.4,0 1.5,-0.9 1.5,-2.1 -0.1,-1.2 -0.2,-2.1 -1.5,-2.1 m 6.3,0.1 c -0.2,-0.1 -0.4,-0.1 -0.6,-0.1 -0.7,0 -1.1,0.1 -1.5,0.3 v 4.4 h -0.7 v -5.3 h 0.4 l 0.2,0.4 c 0.5,-0.4 1.1,-0.5 1.7,-0.5 0.2,0 0.4,0 0.6,0.1 v 0.7 z m 3.4,-1.2 c 0,1.1 0.7,1.2 1.9,1.4 1.5,0.2 2.5,0.6 2.5,2.1 0,1.1 -0.6,2.4 -2.9,2.4 -0.7,0 -1.7,-0.2 -2.2,-0.4 v -0.7 c 0.5,0.2 1.1,0.4 2.2,0.4 1.6,0 2.1,-0.8 2.1,-1.7 0,-1.1 -0.5,-1.3 -1.8,-1.5 -1.9,-0.2 -2.6,-0.7 -2.6,-2 0,-0.9 0.4,-2.2 2.7,-2.2 1,0 1.6,0.2 2.1,0.4 v 0.7 c -0.7,-0.3 -1.3,-0.4 -2.1,-0.4 -1.6,0 -1.9,0.7 -1.9,1.5 m 6.1,4.4 c 0,0.7 0.4,0.9 1.1,0.9 0.7,0 1,-0.1 1.4,-0.3 v -4.4 h 0.7 v 5.3 h -0.4 l -0.2,-0.4 c -0.5,0.4 -1,0.5 -1.6,0.5 -1.3,0 -1.8,-0.6 -1.8,-1.6 v -3.8 h 0.7 z m 6.4,-1.6 c 1.5,0.1 1.9,0.6 1.9,1.5 0,0.8 -0.5,1.6 -2.1,1.6 -0.5,0 -1.2,-0.1 -1.6,-0.3 v -0.6 c 0.3,0.1 0.8,0.2 1.6,0.2 1.1,0 1.4,-0.5 1.4,-1 0,-0.5 -0.1,-0.8 -1.2,-0.9 -1.5,-0.1 -1.8,-0.7 -1.8,-1.4 0,-0.7 0.5,-1.6 2,-1.6 0.5,0 1.1,0.1 1.5,0.3 v 0.6 c -0.4,-0.1 -0.8,-0.2 -1.5,-0.2 -1,0 -1.3,0.4 -1.3,0.9 -0.1,0.5 0.1,0.8 1.1,0.9 m 5.8,3.1 h -0.5 c -0.9,0 -1.7,-0.4 -1.7,-1.4 V 649 h -1.1 v -0.3 l 1.1,-0.3 V 647 l 0.7,-0.2 v 1.7 h 1.6 v 0.6 h -1.6 v 3.3 c 0,0.6 0.3,0.9 1,0.9 h 0.4 z m 3.1,-4.8 c -0.7,0 -1.2,0.1 -1.6,0.3 v -0.6 c 0.5,-0.2 1.1,-0.3 1.6,-0.3 1.6,0 2,0.7 2,1.8 v 3.6 h -0.4 l -0.2,-0.4 c -0.5,0.3 -1.1,0.5 -1.6,0.5 -1.4,0 -1.8,-0.8 -1.8,-1.7 0,-0.9 0.5,-1.6 1.9,-1.6 l 1.4,-0.1 v -0.3 c -0.1,-0.9 -0.4,-1.2 -1.3,-1.2 m -0.2,2 c -0.7,0.1 -1.1,0.5 -1.1,1.1 0,0.5 0.1,1 1.1,1 0.6,0 0.9,-0.2 1.4,-0.4 v -1.8 z m 4.1,-4.7 c 0.3,0 0.5,0.2 0.5,0.5 0,0.3 -0.2,0.5 -0.5,0.5 -0.3,0 -0.5,-0.2 -0.5,-0.5 -0.1,-0.2 0.2,-0.5 0.5,-0.5 m -0.4,6.3 v -4.2 h 0.7 v 4.3 c 0,0.4 0.1,0.5 0.4,0.5 v 0.6 c -0.7,0 -1.1,-0.3 -1.1,-1.2 m 5.6,-2.7 c 0,-0.7 -0.4,-0.9 -1.1,-0.9 -0.7,0 -1,0.1 -1.4,0.3 v 4.4 h -0.7 v -5.3 h 0.4 l 0.2,0.4 c 0.5,-0.4 1,-0.5 1.6,-0.5 1.3,0 1.8,0.6 1.8,1.6 v 3.8 h -0.7 v -3.8 z m 3.9,-0.9 c -0.7,0 -1.2,0.1 -1.6,0.3 v -0.6 c 0.5,-0.2 1.1,-0.3 1.6,-0.3 1.6,0 2,0.7 2,1.8 v 3.6 h -0.4 l -0.2,-0.4 c -0.5,0.3 -1.1,0.5 -1.6,0.5 -1.4,0 -1.8,-0.8 -1.8,-1.7 0,-0.9 0.5,-1.6 1.9,-1.6 l 1.4,-0.1 v -0.3 c -0.1,-0.9 -0.4,-1.2 -1.3,-1.2 m -0.2,2 c -0.7,0.1 -1.1,0.5 -1.1,1.1 0,0.5 0.1,1 1.1,1 0.6,0 0.9,-0.2 1.4,-0.4 v -1.8 z m 7.9,0.1 c 0,1.5 -0.5,2.7 -2.2,2.7 -0.6,0 -1.1,-0.2 -1.6,-0.5 l -0.2,0.4 h -0.4 v -7.9 h 0.7 v 3 c 0.5,-0.3 1,-0.4 1.5,-0.4 1.7,-0.1 2.2,1.1 2.2,2.7 m -3.6,-1.8 v 3.5 c 0.4,0.2 0.8,0.3 1.5,0.3 1.3,0 1.4,-1 1.4,-2.1 0,-1 -0.2,-2.1 -1.4,-2.1 -0.7,0.1 -1.1,0.2 -1.5,0.4 m 5,3.3 v -6.8 h 0.7 v 6.9 c 0,0.4 0.1,0.5 0.4,0.5 v 0.6 c -0.7,0 -1.1,-0.3 -1.1,-1.2 m 4.5,-4.3 c 1.8,0 2,1.2 2,2.7 v 0.3 h -3.5 c 0,0.9 0.3,1.7 1.5,1.7 0.8,0 1.2,-0.1 1.7,-0.3 v 0.6 c -0.6,0.3 -1.2,0.3 -1.7,0.3 -1.8,0 -2.2,-1.2 -2.2,-2.7 0,-1.4 0.4,-2.6 2.2,-2.6 m -1.5,2.5 h 2.7 c 0,-0.9 -0.1,-1.8 -1.3,-1.8 -1.1,0 -1.3,0.9 -1.4,1.8 m 7,2.9 v -7.9 h 2.1 c 2.6,0 3.3,1.7 3.3,4 0,2.2 -0.7,4 -3.3,4 z m 0.7,-0.7 h 1.5 c 1.9,0 2.5,-1.4 2.5,-3.3 0,-1.9 -0.6,-3.3 -2.5,-3.3 h -1.5 z m 7.9,-4.7 c 1.8,0 2,1.2 2,2.7 v 0.3 h -3.5 c 0,0.9 0.3,1.7 1.5,1.7 0.8,0 1.2,-0.1 1.7,-0.3 v 0.6 c -0.6,0.3 -1.2,0.3 -1.7,0.3 -1.8,0 -2.2,-1.2 -2.2,-2.7 -0.1,-1.4 0.4,-2.6 2.2,-2.6 m -1.5,2.5 h 2.7 c 0,-0.9 -0.1,-1.8 -1.3,-1.8 -1.2,0 -1.4,0.9 -1.4,1.8 m 5,-2.4 1.5,4.4 1.5,-4.4 h 0.8 l -2.1,5.4 h -0.5 l -2.1,-5.4 z m 6.6,-0.1 c 1.8,0 2,1.2 2,2.7 v 0.3 h -3.5 c 0,0.9 0.3,1.7 1.5,1.7 0.8,0 1.2,-0.1 1.7,-0.3 v 0.6 c -0.6,0.3 -1.2,0.3 -1.7,0.3 -1.8,0 -2.2,-1.2 -2.2,-2.7 0,-1.4 0.4,-2.6 2.2,-2.6 m -1.5,2.5 h 2.7 c 0,-0.9 -0.1,-1.8 -1.3,-1.8 -1.2,0 -1.4,0.9 -1.4,1.8 m 4.9,1.8 v -6.8 h 0.7 v 6.9 c 0,0.4 0.1,0.5 0.4,0.5 v 0.6 c -0.7,0 -1.1,-0.3 -1.1,-1.2 m 4.5,1.2 c -1.8,0 -2.2,-1.1 -2.2,-2.7 0,-1.6 0.4,-2.7 2.2,-2.7 1.8,0 2.2,1.1 2.2,2.7 0,1.6 -0.4,2.7 -2.2,2.7 m 0,-4.8 c -1.4,0 -1.5,0.9 -1.5,2.1 0,1.2 0.1,2.1 1.5,2.1 1.4,0 1.5,-0.9 1.5,-2.1 -0.1,-1.2 -0.2,-2.1 -1.5,-2.1 m 4.2,4.4 v 3 h -0.7 v -7.9 h 0.4 l 0.2,0.4 c 0.5,-0.3 1.1,-0.5 1.6,-0.5 1.7,0 2.2,1.2 2.2,2.7 0,1.5 -0.5,2.7 -2.2,2.7 -0.5,0 -1.1,-0.1 -1.5,-0.4 m 2.9,-2.3 c 0,-1 -0.2,-2.1 -1.4,-2.1 -0.7,0 -1.1,0.1 -1.5,0.3 v 3.5 c 0.4,0.2 0.8,0.3 1.5,0.3 1.2,0.1 1.4,-1 1.4,-2 m 8.2,-1.2 c 0,-0.7 -0.4,-0.9 -1,-0.9 -0.7,0 -1,0.1 -1.4,0.3 0,0.2 0.1,0.3 0.1,0.5 v 3.8 h -0.7 v -3.8 c 0,-0.7 -0.4,-0.9 -1,-0.9 -0.6,0 -1,0.1 -1.4,0.3 v 4.4 h -0.7 v -5.3 h 0.4 l 0.2,0.4 c 0.5,-0.4 1.1,-0.5 1.5,-0.5 0.7,0 1.2,0.2 1.5,0.6 0.5,-0.4 1.1,-0.6 1.6,-0.6 1.1,0 1.7,0.5 1.7,1.6 v 3.8 h -0.7 z m 4.2,-1.6 c 1.8,0 2,1.2 2,2.7 v 0.3 h -3.5 c 0,0.9 0.3,1.7 1.5,1.7 0.8,0 1.2,-0.1 1.7,-0.3 v 0.6 c -0.6,0.3 -1.2,0.3 -1.7,0.3 -1.8,0 -2.2,-1.2 -2.2,-2.7 -0.1,-1.4 0.4,-2.6 2.2,-2.6 m -1.5,2.5 h 2.7 c 0,-0.9 -0.1,-1.8 -1.3,-1.8 -1.2,0 -1.4,0.9 -1.4,1.8 m 7.9,-0.9 c 0,-0.7 -0.4,-0.9 -1.1,-0.9 -0.7,0 -1,0.1 -1.4,0.3 v 4.4 h -0.7 v -5.3 h 0.4 l 0.2,0.4 c 0.5,-0.4 1,-0.5 1.6,-0.5 1.3,0 1.8,0.6 1.8,1.6 v 3.8 h -0.7 v -3.8 z m 4.8,3.9 h -0.5 c -0.9,0 -1.7,-0.4 -1.7,-1.4 V 649 h -1.1 v -0.3 l 1.1,-0.3 V 647 l 0.7,-0.2 v 1.7 h 1.6 v 0.6 h -1.6 v 3.3 c 0,0.6 0.3,0.9 1,0.9 h 0.4 z"
         id="path7" />
    </g>
    <g
       class="st1"
       id="g10">
      <path
         class="st4"
         d="m 527,65.3 h 10.2 V 88 H 532 v -4.6 c -1,3.2 -3,5.1 -6.9,5.1 -6.2,0 -9,-4.9 -9,-11.5 V 56.4 c 0,-6.7 3.2,-11.5 10.8,-11.5 7.9,0 10.3,4.4 10.3,10.7 v 3.8 h -6.5 V 55 c 0,-2.6 -1,-4.1 -3.6,-4.1 -2.6,0 -3.7,1.8 -3.7,4.4 v 22.9 c 0,2.6 1.1,4.4 3.5,4.4 2.3,0 3.5,-1.3 3.5,-4.1 V 71 H 527 Z m 13.6,-19.9 h 7.2 v 36.8 h 8.6 V 88 H 540.6 Z M 558.7,77 V 56.4 c 0,-6.7 3.3,-11.5 10.8,-11.5 7.6,0 10.9,4.8 10.9,11.5 V 77 c 0,6.6 -3.3,11.5 -10.9,11.5 -7.5,0 -10.8,-4.9 -10.8,-11.5 m 14.5,1.2 V 55.3 c 0,-2.6 -1.1,-4.4 -3.7,-4.4 -2.5,0 -3.6,1.8 -3.6,4.4 v 22.9 c 0,2.6 1.1,4.4 3.6,4.4 2.6,0 3.7,-1.9 3.7,-4.4 m 10.7,-32.8 h 10.4 c 7.2,0 9.6,3.3 9.6,9.4 v 4.3 c 0,3.6 -1.3,5.8 -4.3,6.8 3.6,0.8 5.3,3.2 5.3,7.1 v 5.7 c 0,6 -2.7,9.4 -9.9,9.4 h -11.1 z m 7.1,18 h 2.5 c 2.3,0 3.4,-1.2 3.4,-3.5 v -5.2 c 0,-2.3 -1.1,-3.5 -3.5,-3.5 H 591 Z m 0,5.5 v 13.3 h 3.1 c 2.4,0 3.5,-1.2 3.5,-3.5 v -6.4 c 0,-2.3 -1.1,-3.5 -3.6,-3.5 z m 15.4,19.1 8.1,-42.6 h 8.2 l 8.1,42.6 h -7.4 l -1.3,-7.8 h -7.6 l -1.3,7.8 z m 9,-13.5 h 5.7 l -2.8,-17.1 h -0.1 z m 17.7,-29.1 h 7.1 v 36.8 h 8.6 V 88 h -15.7 z m 35.1,19.9 h 10.2 V 88 h -5.2 v -4.6 c -0.9,3.2 -3,5.1 -6.9,5.1 -6.2,0 -9,-4.9 -9,-11.5 V 56.4 c 0,-6.7 3.2,-11.5 10.8,-11.5 7.9,0 10.3,4.4 10.3,10.7 v 3.8 h -6.5 V 55 c 0,-2.6 -1,-4.1 -3.6,-4.1 -2.6,0 -3.7,1.8 -3.7,4.4 v 22.9 c 0,2.6 1.1,4.4 3.5,4.4 2.3,0 3.5,-1.3 3.5,-4.1 V 71 h -3.4 z M 681.9,77 V 56.4 c 0,-6.7 3.3,-11.5 10.8,-11.5 7.6,0 10.9,4.8 10.9,11.5 V 77 c 0,6.6 -3.3,11.5 -10.9,11.5 -7.6,0 -10.8,-4.9 -10.8,-11.5 m 14.5,1.2 V 55.3 c 0,-2.6 -1.1,-4.4 -3.7,-4.4 -2.5,0 -3.7,1.8 -3.7,4.4 v 22.9 c 0,2.6 1.1,4.4 3.7,4.4 2.6,0 3.7,-1.9 3.7,-4.4 m 8.6,9.8 8.1,-42.6 h 8.2 L 729.4,88 H 722 l -1.3,-7.8 H 713 l -1.3,7.8 z m 9,-13.5 h 5.7 l -2.8,-17.1 h -0.1 z m 17.6,-29.1 h 7.2 v 36.8 h 8.6 V 88 h -15.8 z m 17.7,33.4 V 73.1 H 756 V 79 c 0,2.4 1.1,3.8 3.5,3.8 2.3,0 3.3,-1.5 3.3,-3.8 v -1.6 c 0,-2.5 -1,-4 -3.2,-6 l -4.2,-4.2 c -4.1,-4 -6,-6.5 -6,-11.4 v -1.4 c 0,-5.3 3.1,-9.4 10.1,-9.4 7.2,0 10,3.5 10,9.7 v 3.5 H 763 v -3.7 c 0,-2.4 -1.1,-3.6 -3.4,-3.6 -2,0 -3.4,1.1 -3.4,3.5 v 0.9 c 0,2.4 1.3,3.8 3.4,5.8 l 4.6,4.5 c 3.9,4 5.8,6.4 5.8,11.1 v 2.1 c 0,5.8 -3.1,10 -10.4,10 -7.4,-0.3 -10.3,-4.4 -10.3,-10 m -306,-33.4 h 19.1 v 5.9 h -6 V 88 h -7.2 V 51.3 h -5.9 z m 35.9,23.8 h -7 V 88 h -7.1 V 45.4 h 7.1 v 18.1 h 7 V 45.4 h 7.2 V 88 h -7.2 z M 489.9,45.4 H 507 v 5.9 h -10 v 12.2 h 7.1 v 5.7 H 497 v 13 h 10 V 88 h -17.1 z"
         id="path8" />
      <g
         id="g9">
        <path
           d="m 458.2,107.6 h -8.5 v 9.5 h -1.8 V 97.3 h 11.3 V 99 h -9.5 v 7 h 8.5 z m 7.6,9.8 c -4.5,0 -5.6,-2.8 -5.6,-6.9 0,-4 1,-6.9 5.6,-6.9 4.6,0 5.6,2.8 5.6,6.9 -0.1,4.1 -1.1,6.9 -5.6,6.9 m 0,-12.1 c -3.5,0 -3.7,2.2 -3.7,5.2 0,3 0.2,5.2 3.7,5.2 3.4,0 3.7,-2.2 3.7,-5.2 0,-3 -0.3,-5.2 -3.7,-5.2 m 16,0.2 c -0.4,-0.1 -0.9,-0.2 -1.6,-0.2 -1.8,0 -2.9,0.3 -3.8,0.8 v 11 h -1.9 v -13.2 h 1 l 0.4,1.1 c 1.2,-0.9 2.8,-1.4 4.3,-1.4 0.6,0 1.1,0.1 1.6,0.1 z m 8.3,-2.9 c 0,2.8 1.6,3.1 4.8,3.5 3.9,0.5 6.3,1.5 6.3,5.3 0,2.7 -1.4,6 -7.3,6 -1.8,0 -4.3,-0.5 -5.6,-1.1 v -1.7 c 1.3,0.4 2.8,1.1 5.6,1.1 4.1,0 5.4,-1.9 5.4,-4.3 0,-2.8 -1.2,-3.4 -4.5,-3.8 -4.7,-0.6 -6.5,-1.7 -6.5,-5.1 0,-2.3 1.1,-5.5 6.7,-5.5 2.4,0 4.1,0.4 5.2,0.9 v 1.8 c -1.8,-0.8 -3.2,-1 -5.2,-1 -4,0 -4.9,1.8 -4.9,3.9 m 15.5,10.9 c 0,1.7 1,2.2 2.6,2.2 1.7,0 2.6,-0.3 3.6,-0.8 v -11 h 1.9 v 13.2 h -1 l -0.4,-1.1 c -1.2,0.9 -2.6,1.4 -4,1.4 -3.2,0 -4.5,-1.4 -4.5,-4 v -9.5 h 1.9 z m 16,-4 c 3.8,0.3 4.7,1.6 4.7,3.8 0,2 -1.3,4.1 -5.3,4.1 -1.3,0 -3.1,-0.3 -3.9,-0.7 v -1.6 c 0.8,0.3 2.1,0.6 4,0.6 2.8,0 3.5,-1.2 3.5,-2.4 0,-1.2 -0.4,-2.1 -3,-2.3 -3.8,-0.3 -4.6,-1.7 -4.6,-3.5 0,-1.9 1.2,-3.9 5,-3.9 1.2,0 2.6,0.2 3.8,0.7 v 1.6 c -1,-0.3 -2.1,-0.6 -3.8,-0.6 -2.6,0 -3.2,1 -3.2,2.3 -0.2,1.1 0.2,1.7 2.8,1.9 m 14.6,7.8 c -0.3,0.1 -0.8,0.1 -1.2,0.1 -2.2,0 -4.2,-1 -4.2,-3.6 v -8.4 h -2.6 v -0.8 l 2.6,-0.8 v -3.6 l 1.9,-0.5 v 4.2 h 4.1 v 1.5 h -4.1 v 8.2 c 0,1.6 0.9,2.3 2.5,2.3 0.3,0 0.7,0 1,-0.1 z m 7.7,-12 c -1.8,0 -2.9,0.3 -4,0.7 v -1.6 c 1.2,-0.5 2.7,-0.7 4,-0.7 4,0 5,1.8 5,4.5 v 9.1 h -1 l -0.4,-1.1 c -1.2,0.9 -2.7,1.3 -4,1.3 -3.5,0 -4.6,-2 -4.6,-4.3 0,-2.2 1.2,-3.9 4.7,-4.1 l 3.5,-0.2 v -0.7 c 0,-2.1 -0.7,-2.9 -3.2,-2.9 m -0.5,5.1 c -1.9,0.2 -2.7,1.2 -2.7,2.7 0,1.2 0.3,2.6 2.8,2.6 1.4,0 2.4,-0.4 3.5,-1.1 V 110 Z m 10.3,-11.8 c 0.7,0 1.3,0.6 1.3,1.3 0,0.7 -0.6,1.3 -1.3,1.3 -0.7,0 -1.3,-0.6 -1.3,-1.3 0,-0.7 0.5,-1.3 1.3,-1.3 m -0.9,15.9 v -10.6 h 1.8 v 10.8 c 0,0.9 0.3,1.2 1.1,1.2 v 1.5 c -1.9,0 -2.9,-0.8 -2.9,-2.9 m 14,-7 c 0,-1.7 -1,-2.2 -2.6,-2.2 -1.7,0 -2.6,0.3 -3.6,0.8 v 11 h -1.8 v -13.2 h 1 l 0.4,1.1 c 1.2,-0.9 2.6,-1.4 4,-1.4 3.1,0 4.5,1.4 4.5,4 v 9.5 h -1.9 z m 9.8,-2.2 c -1.8,0 -2.9,0.3 -4,0.7 v -1.6 c 1.2,-0.5 2.7,-0.7 4,-0.7 4,0 5,1.8 5,4.5 v 9.1 h -1 l -0.4,-1.1 c -1.2,0.9 -2.7,1.3 -4,1.3 -3.5,0 -4.6,-2 -4.6,-4.3 0,-2.2 1.2,-3.9 4.7,-4.1 l 3.5,-0.2 v -0.7 c -0.1,-2.1 -0.7,-2.9 -3.2,-2.9 m -0.5,5.1 c -1.9,0.2 -2.7,1.2 -2.7,2.7 0,1.2 0.3,2.6 2.8,2.6 1.4,0 2.4,-0.4 3.5,-1.1 V 110 Z m 19.9,0.1 c 0,3.8 -1.2,6.9 -5.4,6.9 -1.4,0 -2.8,-0.5 -4.1,-1.4 l -0.4,1.1 h -1 V 97.3 h 1.9 v 7.4 c 1.1,-0.7 2.5,-1.1 3.7,-1.1 4.2,0 5.3,3.1 5.3,6.9 m -9.1,-4.4 v 8.8 c 1,0.6 2,0.8 3.7,0.8 3.2,0 3.6,-2.6 3.6,-5.2 0,-2.6 -0.4,-5.2 -3.6,-5.2 -1.7,0 -2.7,0.3 -3.7,0.8 m 12.7,8.4 V 97.3 h 1.8 v 17.4 c 0,0.9 0.3,1.2 1.1,1.2 v 1.5 c -1.9,0 -2.9,-0.8 -2.9,-2.9 m 11.2,-10.9 c 4.5,0 5,3.1 5,6.9 v 0.9 h -8.7 c 0.1,2.3 0.7,4.4 3.7,4.4 1.9,0 3.1,-0.2 4.4,-0.7 v 1.6 c -1.5,0.7 -3.1,0.8 -4.4,0.8 -4.5,0 -5.6,-3.1 -5.6,-6.9 0.1,-3.9 1.2,-7 5.6,-7 m -3.7,6.3 h 6.9 c 0,-2.4 -0.1,-4.6 -3.2,-4.6 -3,0 -3.6,2.2 -3.7,4.6 m 17.5,7.2 V 97.3 h 5.4 c 6.5,0 8.4,4.3 8.4,9.9 0,5.6 -1.9,9.9 -8.4,9.9 z m 1.8,-1.6 h 3.7 c 4.8,0 6.4,-3.5 6.4,-8.3 0,-4.8 -1.6,-8.3 -6.4,-8.3 h -3.7 z m 19.8,-11.9 c 4.5,0 5,3.1 5,6.9 v 0.9 h -8.7 c 0.1,2.3 0.7,4.4 3.7,4.4 1.9,0 3.1,-0.2 4.4,-0.7 v 1.6 c -1.5,0.7 -3.1,0.8 -4.4,0.8 -4.5,0 -5.6,-3.1 -5.6,-6.9 0,-3.9 1.1,-7 5.6,-7 m -3.7,6.3 h 6.9 c 0,-2.4 -0.1,-4.6 -3.2,-4.6 -3.1,0 -3.7,2.2 -3.7,4.6 m 12.5,-6 3.7,10.9 3.8,-10.9 h 2.1 l -5.2,13.5 h -1.3 l -5.2,-13.5 z m 16.6,-0.3 c 4.5,0 5,3.1 5,6.9 v 0.9 h -8.7 c 0.1,2.3 0.7,4.4 3.7,4.4 1.9,0 3.1,-0.2 4.4,-0.7 v 1.6 c -1.5,0.7 -3.1,0.8 -4.4,0.8 -4.5,0 -5.6,-3.1 -5.6,-6.9 0,-3.9 1.1,-7 5.6,-7 m -3.7,6.3 h 6.9 c 0,-2.4 -0.1,-4.6 -3.2,-4.6 -3.1,0 -3.6,2.2 -3.7,4.6 m 12.3,4.6 V 97.3 h 1.8 v 17.4 c 0,0.9 0.3,1.2 1.1,1.2 v 1.5 c -1.9,0 -2.9,-0.8 -2.9,-2.9 m 11.2,2.9 c -4.5,0 -5.6,-2.8 -5.6,-6.9 0,-4 1,-6.9 5.6,-6.9 4.6,0 5.6,2.8 5.6,6.9 0,4.1 -1,6.9 -5.6,6.9 m 0,-12.1 c -3.5,0 -3.7,2.2 -3.7,5.2 0,3 0.2,5.2 3.7,5.2 3.4,0 3.7,-2.2 3.7,-5.2 0,-3 -0.2,-5.2 -3.7,-5.2 m 10.6,11 v 7.4 h -1.9 v -19.9 h 1 l 0.4,1.1 c 1.4,-0.9 2.7,-1.4 4.1,-1.4 4.3,0 5.4,3.1 5.4,6.9 0,3.8 -1.2,6.9 -5.4,6.9 -1.1,0.1 -2.4,-0.2 -3.6,-1 m 7.3,-5.8 c 0,-2.6 -0.4,-5.2 -3.6,-5.2 -1.7,0 -2.7,0.3 -3.7,0.8 v 8.8 c 1,0.6 2,0.8 3.7,0.8 3.2,0.1 3.6,-2.6 3.6,-5.2 m 20.6,-3 c 0,-1.7 -1,-2.2 -2.5,-2.2 -1.6,0 -2.5,0.3 -3.6,0.9 0.1,0.4 0.2,0.9 0.2,1.4 v 9.6 h -1.9 v -9.6 c 0,-1.7 -1,-2.2 -2.5,-2.2 -1.5,0 -2.4,0.3 -3.4,0.8 v 11.1 h -1.9 v -13.2 h 1 l 0.4,1.1 c 1.3,-0.9 2.6,-1.4 3.9,-1.4 1.8,0 3,0.5 3.7,1.5 1.4,-0.9 2.8,-1.5 4.1,-1.5 2.8,0 4.4,1.3 4.4,4 v 9.5 h -1.9 z m 10.5,-3.9 c 4.5,0 5,3.1 5,6.9 v 0.9 h -8.7 c 0.1,2.3 0.7,4.4 3.7,4.4 1.9,0 3.1,-0.2 4.4,-0.7 v 1.6 c -1.5,0.7 -3.1,0.8 -4.4,0.8 -4.5,0 -5.6,-3.1 -5.6,-6.9 0,-3.9 1.1,-7 5.6,-7 m -3.7,6.3 h 6.9 c 0,-2.4 -0.1,-4.6 -3.2,-4.6 -3.1,0 -3.6,2.2 -3.7,4.6 m 20,-2.4 c 0,-1.7 -1,-2.2 -2.6,-2.2 -1.7,0 -2.6,0.3 -3.6,0.8 v 11 h -1.9 v -13.2 h 1 l 0.4,1.1 c 1.2,-0.9 2.6,-1.4 4,-1.4 3.1,0 4.5,1.4 4.5,4 v 9.5 h -1.9 z m 12,9.8 c -0.3,0.1 -0.8,0.1 -1.2,0.1 -2.2,0 -4.2,-1 -4.2,-3.6 v -8.4 h -2.7 v -0.8 l 2.7,-0.8 v -3.6 l 1.9,-0.5 v 4.2 h 4.1 v 1.5 h -4.1 v 8.2 c 0,1.6 0.9,2.3 2.5,2.3 0.3,0 0.7,0 1,-0.1 z"
           id="path9" />
      </g>
    </g>
    <g
       class="st1"
       id="g11">
      <path
         class="st2"
         d="m 129.6,356.2 2.5,-13.1 h 2.5 l 2.5,13.1 h -2.3 l -0.4,-2.4 h -2.3 l -0.4,2.4 z m 2.8,-4.2 h 1.8 l -0.9,-5.3 z m 5.5,-8.9 h 5.2 v 1.8 h -3 v 3.8 h 2.2 v 1.8 h -2.2 v 5.8 h -2.2 z m 6.1,0 h 5.2 v 1.8 h -3 v 3.8 h 2.2 v 1.8 h -2.2 v 5.8 H 144 Z m 5.8,9.7 v -6.4 c 0,-2.1 1,-3.5 3.3,-3.5 2.3,0 3.4,1.5 3.4,3.5 v 6.4 c 0,2 -1,3.5 -3.4,3.5 -2.2,0.1 -3.3,-1.5 -3.3,-3.5 z m 4.5,0.4 v -7.1 c 0,-0.8 -0.3,-1.4 -1.1,-1.4 -0.8,0 -1.1,0.6 -1.1,1.4 v 7.1 c 0,0.8 0.3,1.4 1.1,1.4 0.8,-0.1 1.1,-0.6 1.1,-1.4 z m 5.6,-3 v 6 h -2.2 v -13.1 h 3.2 c 2.2,0 3,1.1 3,2.9 v 1.7 c 0,1.4 -0.5,2.2 -1.8,2.5 l 2.1,6 H 162 Z m 0,-5.3 v 4.1 h 0.7 c 0.8,0 1.1,-0.4 1.1,-1.1 V 346 c 0,-0.7 -0.3,-1.1 -1.1,-1.1 z m 11.8,1.7 v 6.1 c 0,2 -0.8,3.5 -3.2,3.5 h -3.4 v -13.1 h 3.4 c 2.4,0 3.2,1.5 3.2,3.5 z m -3.5,7.8 c 0.9,0 1.3,-0.5 1.3,-1.3 v -6.9 c 0,-0.8 -0.3,-1.3 -1.3,-1.3 h -0.9 v 9.5 z m 4,1.8 2.5,-13.1 h 2.5 l 2.5,13.1 h -2.3 l -0.4,-2.4 h -2.3 l -0.4,2.4 z M 175,352 h 1.8 l -0.9,-5.3 z m 5.5,-8.9 h 3.2 c 2.2,0 2.9,1 2.9,2.9 v 1.3 c 0,1.1 -0.4,1.8 -1.3,2.1 1.1,0.3 1.6,1 1.6,2.2 v 1.7 c 0,1.9 -0.8,2.9 -3,2.9 h -3.4 z m 2.2,5.5 h 0.8 c 0.7,0 1,-0.4 1,-1.1 v -1.6 c 0,-0.7 -0.3,-1.1 -1.1,-1.1 h -0.8 v 3.8 z m 0,1.7 v 4.1 h 1 c 0.7,0 1.1,-0.4 1.1,-1.1 v -2 c 0,-0.7 -0.3,-1.1 -1.1,-1.1 h -1 z m 5.3,-7.2 h 2.2 v 11.3 h 2.6 v 1.8 H 188 Z m 5.8,0 h 5.3 v 1.8 H 196 v 3.8 h 2.2 v 1.8 H 196 v 4 h 3.1 v 1.8 h -5.3 z m 7.9,13.1 2.5,-13.1 h 2.5 l 2.5,13.1 H 207 l -0.4,-2.4 h -2.3 l -0.4,2.4 z m 2.8,-4.2 h 1.8 l -0.9,-5.3 z m 7.4,-4.1 v 8.3 H 210 v -13.1 h 2.2 l 2.4,7.5 v -7.5 h 1.8 v 13.1 h -1.9 z m 12.3,-1.3 v 6.1 c 0,2 -0.8,3.5 -3.2,3.5 h -3.4 v -13.1 h 3.4 c 2.4,0 3.2,1.5 3.2,3.5 z m -3.4,7.8 c 0.9,0 1.3,-0.5 1.3,-1.3 v -6.9 c 0,-0.8 -0.3,-1.3 -1.3,-1.3 h -0.9 v 9.5 z"
         id="path10" />
    </g>
    <g
       class="st1"
       id="g12">
      <path
         class="st2"
         d="m 129.9,372.1 v -6.3 c 0,-2 1,-3.5 3.3,-3.5 2.4,0 3.1,1.4 3.1,3.3 v 1.5 h -2 v -1.7 c 0,-0.8 -0.3,-1.3 -1.1,-1.3 -0.8,0 -1.1,0.6 -1.1,1.4 v 7 c 0,0.8 0.3,1.4 1.1,1.4 0.8,0 1.1,-0.5 1.1,-1.3 v -2.4 h 2 v 2.3 c 0,1.9 -0.8,3.3 -3.1,3.3 -2.3,-0.1 -3.3,-1.6 -3.3,-3.7 z m 7.8,-9.7 h 2.2 v 11.3 h 2.6 v 1.8 h -4.8 z m 6,0 h 5.2 v 1.8 h -3 v 3.7 h 2.2 v 1.8 h -2.2 v 4 h 3 v 1.8 h -5.2 z m 6.3,13.1 2.5,-13.1 h 2.5 l 2.5,13.1 h -2.3 l -0.4,-2.4 h -2.3 l -0.4,2.4 z m 2.8,-4.1 h 1.8 l -0.9,-5.3 z m 7.6,-4.1 v 8.2 h -1.9 v -13.1 h 2.2 l 2.4,7.5 v -7.5 h 1.8 v 13.1 H 163 Z m 10.4,-4.9 h 5.2 v 1.8 h -3 v 3.7 h 2.2 v 1.8 H 173 v 4 h 3 v 1.8 h -5.2 z m 8.5,4.9 v 8.2 h -1.9 v -13.1 h 2.2 l 2.4,7.5 v -7.5 h 1.8 v 13.1 h -1.9 z m 5.9,-4.9 h 5.2 v 1.8 h -3 v 3.7 h 2.2 v 1.8 h -2.2 v 4 h 3 v 1.8 h -5.2 z m 8.8,7.1 v 6 h -2.2 v -13.1 h 3.2 c 2.2,0 3,1.1 3,2.9 v 1.7 c 0,1.4 -0.5,2.2 -1.8,2.5 l 2.1,5.9 H 196 Z m 0,-5.3 v 4.1 h 0.7 c 0.8,0 1.1,-0.4 1.1,-1.1 v -1.9 c 0,-0.7 -0.3,-1.1 -1.1,-1.1 z m 8.7,4.3 h 3.1 v 7 h -1.6 v -1.4 c -0.3,1 -0.9,1.6 -2.1,1.6 -1.9,0 -2.8,-1.5 -2.8,-3.5 v -6.3 c 0,-2 1,-3.5 3.3,-3.5 2.4,0 3.1,1.4 3.1,3.3 v 1.2 h -2 v -1.3 c 0,-0.8 -0.3,-1.3 -1.1,-1.3 -0.8,0 -1.1,0.6 -1.1,1.4 v 7 c 0,0.8 0.3,1.4 1.1,1.4 0.7,0 1.1,-0.4 1.1,-1.3 v -2.3 h -1 z m 8.8,2 v 5 h -2.2 v -5 l -2.5,-8.1 h 2.3 l 1.3,5 1.3,-5 h 2.1 z"
         id="path11" />
    </g>
    <g
       class="st1"
       id="g13">
      <path
         class="st2"
         d="m 479.3,342.9 h 2.1 v 12.5 h -2.1 z m 4.8,4.7 v 7.9 h -1.8 V 343 h 2.1 l 2.3,7.2 V 343 h 1.8 v 12.5 h -1.8 z m 11.6,-1.3 v 5.8 c 0,1.9 -0.8,3.4 -3.1,3.4 h -3.3 V 343 h 3.3 c 2.3,-0.1 3.1,1.4 3.1,3.3 z m -3.3,7.5 c 0.9,0 1.2,-0.5 1.2,-1.3 v -6.6 c 0,-0.7 -0.3,-1.3 -1.2,-1.3 h -0.9 v 9.1 z m 10.3,-10.9 v 9.5 c 0,1.9 -0.8,3.2 -3,3.2 -2.2,0 -3.1,-1.3 -3.1,-3.2 v -9.5 h 2.1 v 9.7 c 0,0.7 0.3,1.2 1,1.2 0.7,0 1,-0.5 1,-1.2 v -9.7 z m 0.9,9.9 v -1.7 h 2 v 1.7 c 0,0.7 0.3,1.1 1,1.1 0.7,0 1,-0.4 1,-1.1 v -0.5 c 0,-0.7 -0.3,-1.2 -0.9,-1.8 l -1.2,-1.2 c -1.2,-1.2 -1.8,-1.9 -1.8,-3.3 v -0.4 c 0,-1.6 0.9,-2.8 3,-2.8 2.1,0 2.9,1 2.9,2.8 v 1 h -1.9 v -1.1 c 0,-0.7 -0.3,-1.1 -1,-1.1 -0.6,0 -1,0.3 -1,1 v 0.3 c 0,0.7 0.4,1.1 1,1.7 l 1.3,1.3 c 1.1,1.2 1.7,1.9 1.7,3.3 v 0.6 c 0,1.7 -0.9,2.9 -3.1,2.9 -2.2,0.1 -3,-1.1 -3,-2.7 z m 6.1,-9.9 h 5.6 v 1.7 h -1.7 v 10.8 h -2.1 v -10.8 h -1.7 z m 8.4,6.8 v 5.8 H 516 V 343 h 3.1 c 2.1,0 2.9,1.1 2.9,2.8 v 1.6 c 0,1.4 -0.5,2.1 -1.7,2.4 l 2,5.7 h -2.2 z m 0,-5 v 3.9 h 0.7 c 0.7,0 1,-0.4 1,-1 v -1.8 c 0,-0.7 -0.3,-1 -1,-1 h -0.7 z m 8.4,6 v 4.8 h -2.1 v -4.8 l -2.3,-7.8 h 2.2 l 1.3,4.8 1.3,-4.8 h 2 z m 4.2,2.9 -1.1,2.8 h -1.2 l 0.3,-3 h 2 z m 2.6,-10.7 h 2.1 v 12.5 h -2.1 z m 4.8,4.7 v 7.9 h -1.8 V 343 h 2.1 l 2.3,7.2 V 343 h 1.8 v 12.5 h -1.8 z m 7,0 v 7.9 h -1.8 V 343 h 2.1 l 2.3,7.2 V 343 h 1.8 v 12.5 h -1.8 z m 5.3,4.6 v -6.1 c 0,-2 1,-3.4 3.2,-3.4 2.2,0 3.2,1.4 3.2,3.4 v 6.1 c 0,1.9 -1,3.4 -3.2,3.4 -2.3,0 -3.2,-1.4 -3.2,-3.4 z m 4.2,0.4 v -6.7 c 0,-0.8 -0.3,-1.3 -1.1,-1.3 -0.7,0 -1.1,0.5 -1.1,1.3 v 6.7 c 0,0.8 0.3,1.3 1.1,1.3 0.8,0 1.1,-0.6 1.1,-1.3 z m 9.8,-9.7 -2.4,12.5 h -2.3 l -2.4,-12.5 h 2.1 l 1.4,8.7 1.5,-8.7 z m -0.6,12.6 2.4,-12.5 h 2.4 l 2.4,12.5 h -2.2 l -0.4,-2.3 h -2.2 l -0.4,2.3 z m 2.6,-4 h 1.7 l -0.8,-5 z m 4,-8.6 h 5.6 v 1.7 h -1.7 v 10.8 h -2.1 v -10.8 h -1.7 z m 6.3,0 h 2.1 v 12.5 h -2.1 z m 3,9.3 v -6.1 c 0,-2 1,-3.4 3.2,-3.4 2.2,0 3.2,1.4 3.2,3.4 v 6.1 c 0,1.9 -1,3.4 -3.2,3.4 -2.2,0 -3.2,-1.4 -3.2,-3.4 z m 4.3,0.4 v -6.7 c 0,-0.8 -0.3,-1.3 -1.1,-1.3 -0.7,0 -1.1,0.5 -1.1,1.3 v 6.7 c 0,0.8 0.3,1.3 1.1,1.3 0.8,0 1.1,-0.6 1.1,-1.3 z m 4.8,-5 v 7.9 H 587 V 343 h 2.1 l 2.3,7.2 V 343 h 1.8 v 12.5 h -1.8 z"
         id="path12" />
    </g>
    <g
       class="st1"
       id="g14">
      <path
         class="st2"
         d="m 479,374.8 2.4,-12.5 h 2.4 l 2.4,12.5 H 484 l -0.4,-2.3 h -2.2 l -0.4,2.3 z m 2.6,-4 h 1.7 l -0.8,-5 z m 7.1,-3.9 v 7.9 h -1.8 v -12.5 h 2.1 l 2.3,7.2 v -7.2 h 1.8 v 12.5 h -1.8 z m 11.7,-1.3 v 5.8 c 0,1.9 -0.8,3.4 -3.1,3.4 H 494 v -12.5 h 3.3 c 2.3,0 3.1,1.4 3.1,3.3 z m -3.3,7.5 c 0.9,0 1.2,-0.5 1.2,-1.3 v -6.6 c 0,-0.7 -0.3,-1.3 -1.2,-1.3 h -0.9 v 9.1 z m 6.3,-10.8 h 2.1 v 12.5 h -2.1 z m 5,4.6 v 7.9 h -1.8 v -12.5 h 2.1 l 2.3,7.2 v -7.2 h 1.8 v 12.5 H 511 Z m 5.4,-4.6 h 4.9 v 1.7 h -2.8 v 3.6 h 2.1 v 1.7 h -2.1 v 5.5 h -2.1 z m 7.9,6.8 v 5.8 h -2.1 v -12.5 h 3.1 c 2.1,0 2.9,1.1 2.9,2.8 v 1.6 c 0,1.4 -0.5,2.1 -1.7,2.4 l 2,5.7 h -2.2 z m 0,-5.1 v 3.9 h 0.7 c 0.7,0 1,-0.4 1,-1 V 365 c 0,-0.7 -0.3,-1 -1,-1 z m 4.6,10.8 2.4,-12.5 h 2.4 l 2.4,12.5 h -2.2 l -0.4,-2.3 h -2.2 l -0.4,2.3 z m 2.6,-4 h 1.7 l -0.8,-5 z m 5,1.3 v -1.7 h 2 v 1.7 c 0,0.7 0.3,1.1 1,1.1 0.7,0 1,-0.4 1,-1.1 v -0.5 c 0,-0.7 -0.3,-1.2 -0.9,-1.8 l -1.2,-1.2 c -1.2,-1.2 -1.8,-1.9 -1.8,-3.3 v -0.4 c 0,-1.6 0.9,-2.8 3,-2.8 2.1,0 2.9,1 2.9,2.8 v 1 H 538 v -1.1 c 0,-0.7 -0.3,-1.1 -1,-1.1 -0.6,0 -1,0.3 -1,1 v 0.3 c 0,0.7 0.4,1.1 1,1.7 l 1.3,1.3 c 1.1,1.2 1.7,1.9 1.7,3.3 v 0.6 c 0,1.7 -0.9,2.9 -3.1,2.9 -2.1,0.2 -3,-1 -3,-2.7 z m 6.6,-9.8 h 5.6 v 1.7 h -1.7 v 10.8 h -2.1 V 364 h -1.7 z m 8.6,6.8 v 5.8 H 547 v -12.5 h 3.1 c 2.1,0 2.9,1.1 2.9,2.8 v 1.6 c 0,1.4 -0.5,2.1 -1.7,2.4 l 2,5.7 h -2.2 z m 0,-5.1 v 3.9 h 0.7 c 0.7,0 1,-0.4 1,-1 V 365 c 0,-0.7 -0.3,-1 -1,-1 z m 11,-1.7 v 9.5 c 0,1.9 -0.8,3.2 -3,3.2 -2.2,0 -3.1,-1.3 -3.1,-3.2 v -9.5 h 2.1 v 9.7 c 0,0.7 0.3,1.2 1,1.2 0.7,0 1,-0.5 1,-1.2 v -9.7 z m 1.1,9.3 v -6.1 c 0,-2 0.9,-3.4 3.1,-3.4 2.3,0 3,1.3 3,3.1 v 1.5 h -1.9 v -1.6 c 0,-0.8 -0.3,-1.2 -1,-1.2 -0.8,0 -1.1,0.5 -1.1,1.3 v 6.7 c 0,0.8 0.3,1.3 1.1,1.3 0.8,0 1,-0.5 1,-1.2 v -2.3 h 1.9 v 2.2 c 0,1.8 -0.7,3.1 -3,3.1 -2.1,0 -3.1,-1.5 -3.1,-3.4 z m 6.5,-9.3 h 5.6 v 1.7 h -1.7 v 10.8 h -2.1 V 364 h -1.7 z m 12.6,0 v 9.5 c 0,1.9 -0.8,3.2 -3,3.2 -2.2,0 -3.1,-1.3 -3.1,-3.2 v -9.5 h 2.1 v 9.7 c 0,0.7 0.3,1.2 1,1.2 0.7,0 1,-0.5 1,-1.2 v -9.7 z m 3.3,6.8 v 5.8 h -2.1 v -12.5 h 3.1 c 2.1,0 2.9,1.1 2.9,2.8 v 1.6 c 0,1.4 -0.5,2.1 -1.7,2.4 l 2,5.7 h -2.2 z m 0,-5.1 v 3.9 h 0.7 c 0.7,0 1,-0.4 1,-1 V 365 c 0,-0.7 -0.3,-1 -1,-1 z m 4.9,-1.7 h 5 v 1.7 h -2.9 v 3.6 h 2.1 v 1.7 h -2.1 v 3.8 h 2.9 v 1.7 h -5 z"
         id="path13" />
    </g>
    <g
       class="st1"
       id="g15">
      <path
         class="st2"
         d="m 310.3,176.9 h 3.4 v 1.8 H 308 v -1.8 l 3.5,-9.5 h -3.1 v -1.8 h 5.5 v 1.8 z m 4.8,-11.4 h 5.3 v 1.8 h -3.1 v 3.8 h 2.2 v 1.8 h -2.2 v 4 h 3.1 v 1.8 h -5.3 z m 8.9,7.1 v 6 h -2.2 v -13.1 h 3.2 c 2.2,0 3,1.1 3,2.9 v 1.7 c 0,1.4 -0.5,2.2 -1.8,2.5 l 2.1,6 H 326 Z m 0,-5.3 v 4.1 h 0.7 c 0.8,0 1.1,-0.4 1.1,-1.1 v -1.9 c 0,-0.7 -0.3,-1.1 -1.1,-1.1 z m 5.5,8 v -6.4 c 0,-2.1 1,-3.5 3.3,-3.5 2.3,0 3.4,1.5 3.4,3.5 v 6.4 c 0,2 -1,3.5 -3.4,3.5 -2.3,0 -3.3,-1.5 -3.3,-3.5 z m 4.4,0.3 v -7.1 c 0,-0.8 -0.3,-1.4 -1.1,-1.4 -0.8,0 -1.1,0.6 -1.1,1.4 v 7.1 c 0,0.8 0.3,1.4 1.1,1.4 0.8,0 1.1,-0.6 1.1,-1.4 z"
         id="path14" />
    </g>
    <g
       class="st1"
       id="g16">
      <path
         class="st2"
         d="m 312.4,192.1 h -2.1 v 5.8 h -2.2 v -13.1 h 2.2 v 5.6 h 2.1 v -5.6 h 2.2 v 13.1 h -2.2 z m 10.2,-7.3 v 9.9 c 0,2 -0.9,3.4 -3.1,3.4 -2.3,0 -3.3,-1.3 -3.3,-3.4 v -9.9 h 2.2 V 195 c 0,0.8 0.3,1.3 1.1,1.3 0.8,0 1.1,-0.5 1.1,-1.3 v -10.2 z m 3.3,4.9 V 198 H 324 v -13.1 h 2.2 l 2.4,7.5 v -7.5 h 1.8 V 198 h -1.9 z m 9.3,1.2 h 3.1 v 7 h -1.6 v -1.4 c -0.3,1 -0.9,1.6 -2.1,1.6 -1.9,0 -2.8,-1.5 -2.8,-3.5 v -6.4 c 0,-2.1 1,-3.5 3.3,-3.5 2.4,0 3.2,1.4 3.2,3.3 v 1.2 h -2 v -1.3 c 0,-0.8 -0.3,-1.3 -1.1,-1.3 -0.8,0 -1.1,0.6 -1.1,1.4 v 7.1 c 0,0.8 0.3,1.4 1.1,1.4 0.7,0 1.1,-0.4 1.1,-1.3 v -2.3 h -1 v -2 z m 4.6,-6.1 h 5.3 v 1.8 H 342 v 3.8 h 2.2 v 1.8 H 342 v 4 h 3.1 v 1.8 h -5.3 z m 8.9,7.1 v 6 h -2.2 v -13.1 h 3.2 c 2.2,0 3,1.1 3,2.9 v 1.7 c 0,1.4 -0.5,2.2 -1.8,2.5 l 2.1,6 h -2.3 z m 0,-5.3 v 4.1 h 0.7 c 0.8,0 1.1,-0.4 1.1,-1.1 v -1.9 c 0,-0.7 -0.3,-1.1 -1.1,-1.1 z"
         id="path15" />
    </g>
    <g
       class="st1"
       id="g17">
      <path
         class="st2"
         d="m 305.4,362.4 h 5.3 v 1.8 h -3.1 v 3.8 h 2.2 v 1.8 h -2.2 v 4 h 3.1 v 1.8 h -5.3 z m 6.3,9.7 v -6.4 c 0,-2.1 1,-3.5 3.3,-3.5 2.4,0 3.1,1.4 3.1,3.3 v 1.6 h -2 v -1.7 c 0,-0.8 -0.3,-1.3 -1.1,-1.3 -0.8,0 -1.1,0.6 -1.1,1.4 v 7.1 c 0,0.8 0.3,1.4 1.1,1.4 0.8,0 1.1,-0.5 1.1,-1.3 v -2.4 h 2 v 2.3 c 0,1.9 -0.8,3.3 -3.1,3.3 -2.4,-0.2 -3.3,-1.7 -3.3,-3.8 z m 7.6,0 v -6.4 c 0,-2.1 1,-3.5 3.3,-3.5 2.3,0 3.4,1.5 3.4,3.5 v 6.4 c 0,2 -1,3.5 -3.4,3.5 -2.3,0.1 -3.3,-1.4 -3.3,-3.5 z m 4.5,0.4 v -7.1 c 0,-0.8 -0.3,-1.4 -1.1,-1.4 -0.8,0 -1.1,0.6 -1.1,1.4 v 7.1 c 0,0.8 0.3,1.4 1.1,1.4 0.7,-0.1 1.1,-0.6 1.1,-1.4 z m 5.3,-5.2 v 8.3 h -1.9 v -13.1 h 2.2 l 2.4,7.5 v -7.5 h 1.8 v 13.1 h -1.9 z m 5.8,4.8 v -6.4 c 0,-2.1 1,-3.5 3.3,-3.5 2.3,0 3.4,1.5 3.4,3.5 v 6.4 c 0,2 -1,3.5 -3.4,3.5 -2.3,0.1 -3.3,-1.4 -3.3,-3.5 z m 4.5,0.4 v -7.1 c 0,-0.8 -0.3,-1.4 -1.1,-1.4 -0.8,0 -1.1,0.6 -1.1,1.4 v 7.1 c 0,0.8 0.3,1.4 1.1,1.4 0.7,-0.1 1.1,-0.6 1.1,-1.4 z m 9.5,-5.5 -1.6,8.5 h -1 l -1.6,-8.5 v 8.5 h -1.8 v -13.1 h 2.6 l 1.4,7.4 1.3,-7.4 h 2.8 v 13.1 h -2 z m 3.3,-4.6 h 2.2 v 13.1 h -2.2 z m 3.5,9.7 v -6.4 c 0,-2.1 1,-3.5 3.3,-3.5 2.4,0 3.1,1.4 3.1,3.3 v 1.6 h -2 v -1.7 c 0,-0.8 -0.3,-1.3 -1.1,-1.3 -0.8,0 -1.1,0.6 -1.1,1.4 v 7.1 c 0,0.8 0.3,1.4 1.1,1.4 0.8,0 1.1,-0.5 1.1,-1.3 v -2.4 h 2 v 2.3 c 0,1.9 -0.8,3.3 -3.1,3.3 -2.4,-0.2 -3.3,-1.7 -3.3,-3.8 z m 13.5,-3.6 h 3.1 v 7 h -1.6 v -1.4 c -0.3,1 -0.9,1.6 -2.1,1.6 -1.9,0 -2.8,-1.5 -2.8,-3.5 v -6.4 c 0,-2.1 1,-3.5 3.3,-3.5 2.4,0 3.2,1.4 3.2,3.3 v 1.2 h -2 v -1.3 c 0,-0.8 -0.3,-1.3 -1.1,-1.3 -0.8,0 -1.1,0.6 -1.1,1.4 v 7.1 c 0,0.8 0.3,1.4 1.1,1.4 0.7,0 1.1,-0.4 1.1,-1.3 v -2.3 h -1 v -2 z m 6.6,1 v 6 h -2.2 v -13.1 h 3.2 c 2.2,0 3,1.1 3,2.9 v 1.7 c 0,1.4 -0.5,2.2 -1.8,2.5 l 2.1,6 h -2.3 z m 0,-5.3 v 4.1 h 0.7 c 0.8,0 1.1,-0.4 1.1,-1.1 v -1.9 c 0,-0.7 -0.3,-1.1 -1.1,-1.1 z m 5.1,7.9 v -6.4 c 0,-2.1 1,-3.5 3.3,-3.5 2.3,0 3.4,1.5 3.4,3.5 v 6.4 c 0,2 -1,3.5 -3.4,3.5 -2.3,0.1 -3.3,-1.4 -3.3,-3.5 z m 4.5,0.4 v -7.1 c 0,-0.8 -0.3,-1.4 -1.1,-1.4 -0.8,0 -1.1,0.6 -1.1,1.4 v 7.1 c 0,0.8 0.3,1.4 1.1,1.4 0.7,-0.1 1.1,-0.6 1.1,-1.4 z m 7.8,-5.1 -1.2,8.1 h -2.1 l -1.8,-13.1 h 2.1 l 1,8.3 1.1,-8.3 h 1.8 l 1.2,8.3 1,-8.3 h 1.9 l -1.7,13.1 h -2.1 z m 5.8,-5 h 5.9 v 1.8 h -1.8 v 11.3 h -2.2 V 364.2 H 399 Z m 10.9,7.3 h -2.1 v 5.8 h -2.2 v -13.1 h 2.2 v 5.6 h 2.1 v -5.6 h 2.2 v 13.1 h -2.2 z"
         id="path16" />
    </g>
    <g
       class="st1"
       id="g18">
      <path
         class="st2"
         d="m 312,346.6 v 6.1 c 0,2 -0.8,3.5 -3.2,3.5 h -3.4 v -13.1 h 3.4 c 2.4,0 3.2,1.5 3.2,3.5 z m -3.4,7.8 c 0.9,0 1.3,-0.5 1.3,-1.3 v -6.9 c 0,-0.8 -0.3,-1.3 -1.3,-1.3 h -0.9 v 9.5 z m 4.8,-11.3 h 5.3 v 1.8 h -3.1 v 3.8 h 2.2 v 1.8 h -2.2 v 4 h 3.1 v 1.8 h -5.3 z m 6.4,9.7 v -6.4 c 0,-2.1 1,-3.5 3.3,-3.5 2.4,0 3.1,1.4 3.1,3.3 v 1.6 h -2 V 346 c 0,-0.8 -0.3,-1.3 -1.1,-1.3 -0.8,0 -1.1,0.6 -1.1,1.4 v 7.1 c 0,0.8 0.3,1.4 1.1,1.4 0.8,0 1.1,-0.5 1.1,-1.3 v -2.4 h 2 v 2.3 c 0,1.9 -0.8,3.3 -3.1,3.3 -2.3,-0.1 -3.3,-1.7 -3.3,-3.7 z m 7.8,-9.7 h 5.3 v 1.8 h -3.1 v 3.8 h 2.2 v 1.8 h -2.2 v 4 h 3.1 v 1.8 h -5.3 z m 8.4,4.8 v 8.3 h -1.9 v -13.1 h 2.2 l 2.4,7.5 v -7.5 h 1.8 v 13.1 h -1.9 z m 5.7,-4.8 h 5.9 v 1.8 h -1.8 v 11.3 h -2.2 v -11.3 h -1.8 v -1.8 z m 14,5 -1.2,8.1 h -2.1 l -1.8,-13.1 h 2.1 l 1,8.3 1.1,-8.3 h 1.8 l 1.2,8.3 1,-8.3 h 1.9 l -1.7,13.1 h -2 z m 6,4.7 v -6.4 c 0,-2.1 1,-3.5 3.3,-3.5 2.3,0 3.4,1.5 3.4,3.5 v 6.4 c 0,2 -1,3.5 -3.4,3.5 -2.3,0.1 -3.3,-1.5 -3.3,-3.5 z m 4.5,0.4 v -7.1 c 0,-0.8 -0.3,-1.4 -1.1,-1.4 -0.8,0 -1.1,0.6 -1.1,1.4 v 7.1 c 0,0.8 0.3,1.4 1.1,1.4 0.8,-0.1 1.1,-0.6 1.1,-1.4 z m 5.8,-3 v 6 h -2.2 v -13.1 h 3.2 c 2.2,0 3,1.1 3,2.9 v 1.7 c 0,1.4 -0.5,2.2 -1.8,2.5 l 2.1,6 H 374 Z m 0,-5.3 v 4.1 h 0.7 c 0.8,0 1.1,-0.4 1.1,-1.1 V 346 c 0,-0.7 -0.3,-1.1 -1.1,-1.1 z m 7.6,4.9 v 6.4 h -2.2 v -13.1 h 2.2 v 5.8 l 2.4,-5.8 h 2.2 l -2.6,5.9 2.6,7.2 h -2.3 z m 7.8,6.4 2.5,-13.1 h 2.5 l 2.5,13.1 h -2.3 l -0.4,-2.4 h -2.3 l -0.4,2.4 z m 2.7,-4.2 h 1.8 l -0.9,-5.3 z m 7.4,-4.1 v 8.3 h -1.9 v -13.1 h 2.2 l 2.4,7.5 v -7.5 h 1.8 v 13.1 h -1.9 z m 12.6,-1.3 v 6.1 c 0,2 -0.8,3.5 -3.2,3.5 h -3.4 v -13.1 h 3.4 c 2.3,0 3.2,1.5 3.2,3.5 z m -3.5,7.8 c 0.9,0 1.3,-0.5 1.3,-1.3 v -6.9 c 0,-0.8 -0.3,-1.3 -1.3,-1.3 h -0.9 v 9.5 z"
         id="path17" />
    </g>
    <g
       class="st1"
       id="g19">
      <path
         class="st2"
         d="m 490.9,171.6 h 3.1 v 7 h -1.6 v -1.4 c -0.3,1 -0.9,1.6 -2.1,1.6 -1.9,0 -2.8,-1.5 -2.8,-3.5 v -6.4 c 0,-2.1 1,-3.5 3.3,-3.5 2.4,0 3.2,1.4 3.2,3.3 v 1.2 h -2 v -1.3 c 0,-0.8 -0.3,-1.3 -1.1,-1.3 -0.8,0 -1.1,0.6 -1.1,1.4 v 7.1 c 0,0.8 0.3,1.4 1.1,1.4 0.7,0 1.1,-0.4 1.1,-1.3 v -2.3 h -1 v -2 z m 4.6,3.6 v -6.4 c 0,-2.1 1,-3.5 3.3,-3.5 2.3,0 3.4,1.5 3.4,3.5 v 6.4 c 0,2 -1,3.5 -3.4,3.5 -2.3,0.1 -3.3,-1.4 -3.3,-3.5 z m 4.5,0.4 v -7.1 c 0,-0.8 -0.3,-1.4 -1.1,-1.4 -0.8,0 -1.1,0.6 -1.1,1.4 v 7.1 c 0,0.8 0.3,1.4 1.1,1.4 0.8,0 1.1,-0.6 1.1,-1.4 z m 3.7,-0.4 v -6.4 c 0,-2.1 1,-3.5 3.3,-3.5 2.3,0 3.4,1.5 3.4,3.5 v 6.4 c 0,2 -1,3.5 -3.4,3.5 -2.3,0.1 -3.3,-1.4 -3.3,-3.5 z m 4.5,0.4 v -7.1 c 0,-0.8 -0.3,-1.4 -1.1,-1.4 -0.8,0 -1.1,0.6 -1.1,1.4 v 7.1 c 0,0.8 0.3,1.4 1.1,1.4 0.7,0 1.1,-0.6 1.1,-1.4 z m 10.2,-6.6 v 6.1 c 0,2 -0.8,3.5 -3.2,3.5 h -3.4 v -13.1 h 3.4 c 2.4,0 3.2,1.5 3.2,3.5 z m -3.4,7.8 c 0.9,0 1.3,-0.5 1.3,-1.3 v -6.9 c 0,-0.8 -0.3,-1.3 -1.3,-1.3 h -1 v 9.5 z m 12.2,-4 h -2.1 v 5.8 h -2.2 v -13.1 h 2.2 v 5.6 h 2.1 v -5.6 h 2.2 v 13.1 h -2.2 z m 3.7,-7.3 h 5.3 v 1.8 h -3.1 v 3.8 h 2.2 v 1.8 h -2.2 v 4 h 3.1 v 1.8 h -5.3 z m 6.3,13.1 2.5,-13.1 h 2.5 l 2.5,13.1 h -2.3 l -0.4,-2.4 h -2.3 l -0.4,2.4 z m 2.8,-4.1 h 1.8 l -0.9,-5.3 z m 5.8,-9 h 2.2 v 11.3 h 2.6 v 1.8 h -4.8 z m 4.6,0 h 5.9 v 1.8 h -1.8 v 11.3 h -2.2 v -11.3 h -1.8 v -1.8 z m 11.4,7.3 h -2.1 v 5.8 h -2.2 v -13.1 h 2.2 v 5.6 h 2.1 v -5.6 h 2.2 v 13.1 h -2.2 z"
         id="path18" />
    </g>
    <g
       class="st1"
       id="g20">
      <path
         class="st2"
         d="m 487.3,197.9 2.5,-13.1 h 2.5 l 2.5,13.1 h -2.3 l -0.4,-2.4 h -2.3 l -0.4,2.4 z m 2.7,-4.1 h 1.8 l -0.9,-5.3 z m 7.7,-4.1 v 8.3 h -1.9 v -13.1 h 2.2 l 2.4,7.5 v -7.5 h 1.8 V 198 h -1.9 z m 12.6,-1.4 v 6.1 c 0,2 -0.8,3.5 -3.2,3.5 h -3.4 v -13.1 h 3.4 c 2.4,0 3.2,1.5 3.2,3.5 z m -3.4,7.8 c 0.9,0 1.3,-0.5 1.3,-1.3 v -6.9 c 0,-0.8 -0.3,-1.3 -1.3,-1.3 H 506 v 9.5 z m 11.9,-6.3 -1.2,8.1 h -2.1 l -1.8,-13.1 h 2.1 l 1,8.3 1.1,-8.3 h 1.8 l 1.2,8.3 1,-8.3 h 1.9 l -1.7,13.1 H 520 Z m 6.3,-5 h 5.3 v 1.8 h -3.1 v 3.8 h 2.2 v 1.8 h -2.2 v 4 h 3.1 v 1.8 h -5.3 z m 6.6,0 h 2.2 v 11.3 h 2.6 v 1.8 h -4.8 z m 6.1,0 h 2.2 v 11.3 h 2.6 v 1.8 h -4.8 z m 4.5,5.4 h 3.1 v 1.8 h -3.1 z m 4.5,-5.4 h 3.2 c 2.2,0 2.9,1 2.9,2.9 v 1.3 c 0,1.1 -0.4,1.8 -1.3,2.1 1.1,0.3 1.6,1 1.6,2.2 v 1.7 c 0,1.9 -0.8,2.9 -3,2.9 h -3.4 z m 2.2,5.5 h 0.8 c 0.7,0 1,-0.4 1,-1.1 v -1.6 c 0,-0.7 -0.3,-1.1 -1.1,-1.1 H 549 Z m 0,1.7 v 4.1 h 1 c 0.7,0 1.1,-0.4 1.1,-1.1 v -2 c 0,-0.7 -0.3,-1.1 -1.1,-1.1 h -1 z m 5.5,-7.2 h 5.3 v 1.8 h -3.1 v 3.8 h 2.2 v 1.8 h -2.2 v 4 h 3.1 v 1.8 h -5.3 z m 6.7,0 h 2.2 v 13.1 h -2.2 z m 5.5,4.9 v 8.3 h -1.9 v -13.1 h 2.2 l 2.4,7.5 v -7.5 h 1.8 V 198 h -1.9 z m 9.4,1.2 h 3.1 v 7 h -1.6 v -1.4 c -0.3,1 -0.9,1.6 -2.1,1.6 -1.9,0 -2.8,-1.5 -2.8,-3.5 v -6.4 c 0,-2.1 1,-3.5 3.3,-3.5 2.4,0 3.2,1.4 3.2,3.3 v 1.2 h -2 v -1.3 c 0,-0.8 -0.3,-1.3 -1.1,-1.3 -0.8,0 -1.1,0.6 -1.1,1.4 v 7.1 c 0,0.8 0.3,1.4 1.1,1.4 0.7,0 1.1,-0.4 1.1,-1.3 v -2.3 h -1 v -2 z"
         id="path19" />
    </g>
    <g
       class="st1"
       id="g21">
      <path
         class="st2"
         d="m 1026.5,394.8 2.5,-13.1 h 2.5 l 2.5,13.1 h -2.3 l -0.4,-2.4 h -2.3 l -0.4,2.4 z m 2.8,-4.1 h 1.8 l -0.9,-5.3 z m 7.5,-4.1 v 8.3 h -1.9 v -13.1 h 2.2 l 2.4,7.5 v -7.5 h 1.8 v 13.1 h -1.9 z m 12.5,-1.4 v 6.1 c 0,2 -0.8,3.5 -3.2,3.5 h -3.4 v -13.1 h 3.4 c 2.4,0 3.2,1.5 3.2,3.5 z m -3.5,7.8 c 0.9,0 1.3,-0.5 1.3,-1.3 v -6.9 c 0,-0.8 -0.3,-1.3 -1.3,-1.3 h -0.9 v 9.5 z m 6.9,-11.3 h 3.3 c 2.2,0 3,1.1 3,2.9 v 2.8 c 0,1.8 -0.8,3 -3,3 h -1.1 v 4.5 h -2.2 z m 2.2,1.8 v 5.2 h 0.8 c 0.8,0 1.1,-0.4 1.1,-1.1 v -3 c 0,-0.7 -0.3,-1.1 -1.1,-1.1 z m 7.6,5.3 v 6 h -2.2 v -13.1 h 3.2 c 2.2,0 3,1.1 3,2.9 v 1.7 c 0,1.4 -0.5,2.2 -1.8,2.5 l 2.1,6 h -2.3 z m 0,-5.3 v 4.1 h 0.7 c 0.8,0 1.1,-0.4 1.1,-1.1 v -1.9 c 0,-0.7 -0.3,-1.1 -1.1,-1.1 z m 5.3,7.9 V 385 c 0,-2.1 1,-3.5 3.3,-3.5 2.3,0 3.4,1.5 3.4,3.5 v 6.4 c 0,2 -1,3.5 -3.4,3.5 -2.3,0.1 -3.3,-1.4 -3.3,-3.5 z m 4.5,0.4 v -7.1 c 0,-0.8 -0.3,-1.4 -1.1,-1.4 -0.8,0 -1.1,0.6 -1.1,1.4 v 7.1 c 0,0.8 0.3,1.4 1.1,1.4 0.7,-0.1 1.1,-0.6 1.1,-1.4 z m 10.1,-6.6 v 6.1 c 0,2 -0.8,3.5 -3.2,3.5 h -3.4 v -13.1 h 3.4 c 2.4,0 3.2,1.5 3.2,3.5 z m -3.5,7.8 c 0.9,0 1.3,-0.5 1.3,-1.3 v -6.9 c 0,-0.8 -0.3,-1.3 -1.3,-1.3 h -0.9 v 9.5 z m 11.3,-11.3 v 9.9 c 0,2 -0.9,3.4 -3.1,3.4 -2.3,0 -3.3,-1.3 -3.3,-3.4 v -9.9 h 2.2 v 10.2 c 0,0.8 0.3,1.3 1.1,1.3 0.8,0 1.1,-0.5 1.1,-1.3 v -10.2 z m 1.3,9.7 V 385 c 0,-2.1 1,-3.5 3.3,-3.5 2.4,0 3.1,1.4 3.1,3.3 v 1.6 h -2 v -1.7 c 0,-0.8 -0.3,-1.3 -1.1,-1.3 -0.8,0 -1.1,0.6 -1.1,1.4 v 7.1 c 0,0.8 0.3,1.4 1.1,1.4 0.8,0 1.1,-0.5 1.1,-1.3 v -2.4 h 2 v 2.3 c 0,1.9 -0.8,3.3 -3.1,3.3 -2.4,-0.2 -3.3,-1.7 -3.3,-3.8 z m 7.4,-9.7 h 5.9 v 1.8 h -1.8 v 11.3 h -2.2 v -11.3 h -1.8 z m 6.9,0 h 2.2 v 13.1 h -2.2 z m 3.5,9.7 V 385 c 0,-2.1 1,-3.5 3.3,-3.5 2.3,0 3.4,1.5 3.4,3.5 v 6.4 c 0,2 -1,3.5 -3.4,3.5 -2.3,0.1 -3.3,-1.4 -3.3,-3.5 z m 4.5,0.4 v -7.1 c 0,-0.8 -0.3,-1.4 -1.1,-1.4 -0.8,0 -1.1,0.6 -1.1,1.4 v 7.1 c 0,0.8 0.3,1.4 1.1,1.4 0.8,-0.1 1.1,-0.6 1.1,-1.4 z m 5.4,-5.2 v 8.3 h -1.9 v -13.1 h 2.2 l 2.4,7.5 v -7.5 h 1.8 v 13.1 h -1.9 z"
         id="path20" />
    </g>
  </g>
  <path
     class="st17"
     d="M 0.73758553,0 H 161.63759 V 160.9 H 0.73758553 Z"
     id="path69" />
  <path
     class="st2"
     d="m 29.5,20.551845 c 0,-5 -2.2,-8.7 -7.9,-8.7 -5.8,0 -8,3.2 -8,8.2 v 4.8 c 0,5.3 2.1,8 6,8 2.3,0 3.7,-1.1 4.5,-2.6 v 7 c 0,2 -0.8,3.3 -2.7,3.3 -2,0 -2.7,-1.1 -2.7,-3.2 v -2.2 h -5 v 1.7 c 0,4.8 1.7,8.1 7.8,8.1 5.7,0 8,-3.7 8,-8.8 z m -5.4,5 c -0.1,1.8 -0.9,3 -2.6,3 -1.9,0 -2.6,-1.1 -2.6,-3.3 v -5.6 c 0,-2.1 0.8,-3.3 2.6,-3.3 1.8,0 2.5,1.2 2.5,3.3 v 5.9 z m 96.6,79.199995 -19.1,-10.999995 v -22.1 c 0,-0.5 -0.2,-0.9 -0.7,-1.1 l -19.8,-11.4 c -0.4,-0.2 -0.9,-0.2 -1.3,0 l -19.8,11.4 c -0.4,0.2 -0.7,0.7 -0.7,1.1 v 22.1 L 40.2,104.75184 c -0.4,0.2 -0.7,0.7 -0.7,1.1 v 22.8 c 0,0.5 0.2,0.9 0.7,1.1 l 19.8,11.4 c 0.2,0.1 0.4,0.2 0.7,0.2 0.2,0 0.5,-0.1 0.7,-0.2 l 19.1,-11 19.1,11 c 0.2,0.1 0.4,0.2 0.7,0.2 0.3,0 0.5,-0.1 0.7,-0.2 l 19.8,-11.4 c 0.4,-0.2 0.7,-0.7 0.7,-1.1 v -22.8 c -0.2,-0.5 -0.4,-0.9 -0.8,-1.1 z m -41.6,21.7 -15.9,-9.2 15.9,-9.2 z M 97.6,94.451845 81.7,103.65184 V 85.351845 Z m -18.5,9.099995 -15.9,-9.199995 15.9,-9.2 z m 4,2.3 17.2,-9.899995 17.2,9.899995 -17.2,9.9 z m 15.8,-13.699995 -15.9,-9.2 15.9,-9.2 z m -21.1,-9.1 -15.9,9.2 v -18.3 z m -18.4,54.799995 -17.2,-9.9 v -19.8 l 17.2,9.9 z m 2.6,0 v -18.3 l 15.9,9.2 z m 56.7,-9.9 -17.2,9.9 v -19.8 l 17.2,-9.9 z"
     id="path70" />
  <text
     xml:space="preserve"
     style="font-weight:600;font-size:13.9128px;line-height:1.25;font-family:Oswald;-inkscape-font-specification:'Oswald Semi-Bold';fill:#ffffff;stroke-width:0.869557"
     x="36.442905"
     y="23.157328"
     id="text1"
     transform="scale(1.0178723,0.98244155)"><tspan
       sodipodi:role="line"
       x="36.442905"
       y="23.157328"
       id="tspan2"
       style="stroke-width:0.869557">INDSTRIA,</tspan></text>
  <text
     xml:space="preserve"
     style="font-weight:600;font-size:13.8094px;line-height:1.25;font-family:Oswald;-inkscape-font-specification:'Oswald Semi-Bold';fill:#ffffff;stroke-width:0.863092"
     x="36.163776"
     y="39.401752"
     id="text3"
     transform="scale(1.0261498,0.97451658)"><tspan
       sodipodi:role="line"
       id="tspan3"
       x="36.163776"
       y="39.401752"
       style="stroke-width:0.863092">INNOVACI I</tspan></text>
  <text
     xml:space="preserve"
     style="font-weight:600;font-size:13.6305px;line-height:1.25;font-family:Oswald;-inkscape-font-specification:'Oswald Semi-Bold';fill:#ffffff;stroke-width:0.851905"
     x="36.543316"
     y="54.190819"
     id="text4"
     transform="scale(1.0160461,0.98420732)"><tspan
       sodipodi:role="line"
       id="tspan4"
       x="36.543316"
       y="54.190819"
       style="stroke-width:0.851905">INFRAESTRUCTURA</tspan></text>
</svg>
